<svg className="F-S-bg-texture" width="231" height="319" viewBox="0 0 231 319" fill="none" xmlns="http://www.w3.org/2000/svg">
        <path opacity="0.96" d="M50.8179 0.750102C50.7203 0.397258 51.0947 -0.249212 51.3873 0.244277C53.6969 4.45126 55.8863 8.74214 58.1528 12.9812C58.45 13.5463 58.7109 14.1434 59.1079 14.6418C59.8294 10.082 60.5826 5.52954 61.3018 0.969704C61.3631 0.6366 61.472 0.3183 61.5763 0C61.8713 0.189993 62.1549 0.412063 62.3727 0.703221C70.4222 10.5483 78.4627 20.4033 86.5213 30.241C87.0885 30.917 87.4424 31.7584 87.8508 32.548C90.174 36.9006 92.4201 41.2976 94.7365 45.6526C95.2606 46.7481 95.9208 47.7647 96.3541 48.9121C100.742 51.0489 105.159 53.124 109.556 55.2411C110.159 55.5594 110.89 55.7247 111.294 56.3613C116.324 63.053 121.324 69.7694 126.372 76.4438C128.797 79.7724 131.347 82.9998 133.736 86.358C137.137 102.961 140.468 119.587 143.83 136.2C143.889 136.425 144.009 136.602 144.198 136.741C149.822 141.557 155.428 146.398 161.039 151.234C162.935 152.779 164.644 154.583 166.595 156.056C168.208 157.23 169.533 158.8 171.128 160.006C172.734 161.2 174.188 162.614 175.742 163.887C176.287 164.344 176.954 164.566 177.576 164.867C187.51 169.607 197.443 174.344 207.385 179.067C207.637 179.183 207.873 179.351 208.04 179.598C213.83 187.688 219.67 195.737 225.462 203.828C225.841 204.558 226.576 205.047 226.787 205.878C226.842 205.891 226.948 205.913 227.003 205.925C227.949 207.421 229.138 208.728 230.002 210.288C228.999 210.813 227.874 210.914 226.819 211.262C221.12 212.785 215.43 214.327 209.733 215.852C215.128 229.045 220.453 242.273 225.83 255.476C226.084 256.076 226.367 256.681 226.399 257.357C225.503 257.332 224.673 256.942 223.826 256.678C222.068 256.118 220.323 255.499 218.558 254.971C207.305 260.11 196.041 265.223 184.799 270.385C183.44 268.941 182.347 267.234 181.072 265.709C177.905 261.578 174.706 257.48 171.538 253.352C170.495 252.034 169.517 250.655 168.408 249.404C163.459 267.414 158.407 285.389 153.443 303.394C153.377 303.703 153.075 303.806 152.851 303.944C143.149 308.887 133.437 313.802 123.743 318.764C123.268 318.162 123.384 317.328 123.262 316.602C122.2 308.376 121.147 300.147 120.097 291.921C119.974 291.01 119.963 290.043 119.52 289.229C115.688 281.118 111.863 273.005 108.045 264.887C106.795 262.294 105.563 259.691 104.385 257.063C103.505 258.983 102.868 261.031 102.076 263C96.2588 278.401 90.4326 293.801 84.6269 309.207C83.7625 311.574 82.7869 313.891 81.9792 316.282C81.8545 316.282 81.6049 316.282 81.4824 316.282C70.7625 292.641 60.0789 268.973 49.3636 245.328C49.0301 244.602 49.3182 243.783 49.3772 243.026C52.8666 214.408 56.3718 185.788 59.8362 157.166C51.9386 160.105 44.032 163.012 36.1345 165.943C35.86 166.071 35.5514 166.061 35.3132 165.856C30.9005 162.839 26.5263 159.754 22.1158 156.737C16.7661 153.448 11.4164 150.144 6.09161 146.815C4.04066 144.624 1.98743 142.428 0 140.165C5.18411 128.282 10.3614 116.394 15.5501 104.511C15.786 104.005 16.0673 103.484 16.0242 102.892C16.0083 100.427 16.0265 97.9599 16.0106 95.4925C15.963 94.693 16.3396 93.9848 16.5755 93.257C17.9323 89.1511 19.3457 85.065 20.7001 80.9592C20.7841 80.6829 20.9452 80.4534 21.1471 80.2683C31.9486 69.8903 42.7298 59.4826 53.5336 49.1045C52.6102 32.9872 51.7322 16.8674 50.8179 0.750102ZM61.7533 2.35887C60.1016 13.2724 58.2276 24.1464 56.542 35.0525C61.5741 34.9735 66.6107 35.0352 71.6428 35.0229C68.4575 24.1933 65.1519 13.4007 62.021 2.5538C61.9552 2.50445 61.8213 2.40576 61.7533 2.35887ZM51.621 2.36628C51.9454 9.14927 52.3584 15.9298 52.7282 22.7128C53.1139 30.1891 53.6289 37.6606 53.9238 45.1394L54.2482 45.1542C55.7025 35.3461 57.4585 25.5923 58.9037 15.7842C56.7348 11.9474 54.7542 7.98711 52.6601 4.10089C52.3175 3.52104 52.1065 2.83509 51.621 2.36628ZM63.0102 2.92145C65.2018 8.64838 67.3163 14.4123 69.4988 20.1442C69.5896 20.4255 69.8505 20.5538 70.0683 20.6969C74.5423 23.3099 78.9799 25.992 83.4426 28.6248C83.7353 28.837 84.0869 28.8666 84.4318 28.8913C80.9447 24.5165 77.3601 20.2306 73.8435 15.8854C70.3156 11.6142 66.8512 7.28635 63.3051 3.03495L63.0102 2.92145ZM66.6243 15.4758C66.681 15.762 66.7468 16.0458 66.824 16.3271C68.6753 22.4685 70.4925 28.6223 72.337 34.7662C73.088 37.6186 73.6937 40.5179 74.4447 43.3677C74.5264 43.3974 74.6943 43.4516 74.7782 43.4813C74.7646 43.1259 74.8554 42.8126 75.0482 42.5436C74.7828 40.1379 74.481 37.7346 74.2383 35.3239C74.1656 34.5565 73.8684 33.8508 73.5962 33.1501C71.3864 27.3195 69.2379 21.4618 67.01 15.6411C66.9147 15.5992 66.7219 15.5177 66.6243 15.4758ZM70.2702 21.6592C70.243 21.975 70.2815 22.2785 70.3882 22.5697C71.8243 26.2857 73.1697 30.0436 74.6171 33.7546C74.8032 34.2456 74.8848 34.7712 74.9575 35.2943C76.2552 46.23 77.5937 57.1657 78.9006 68.0989C78.9505 68.1828 79.0457 68.3481 79.0934 68.432C81.471 56.001 83.8351 43.5651 86.2264 31.1366C80.9084 27.9759 75.5745 24.8447 70.2702 21.6592ZM86.6484 32.4098C84.3637 44.752 81.9566 57.067 79.6107 69.3943C80.0962 69.3302 80.2868 68.8046 80.5885 68.469C85.6887 62.0636 90.7298 55.6013 95.8527 49.2181C95.2742 48.3224 94.8204 47.3428 94.3145 46.3978C91.8415 41.6924 89.414 36.9573 86.8934 32.284L86.6484 32.4098ZM57.0819 35.7754C63.2144 41.7096 69.399 47.5797 75.5519 53.4917C75.7379 53.6743 75.9534 53.7976 76.1985 53.8642C74.7306 47.8363 73.2808 41.8009 71.8719 35.7557C66.9419 35.7804 62.0119 35.7384 57.0819 35.7754ZM56.2947 36.2368C55.7161 40.3821 54.9833 44.5003 54.3322 48.6333C54.2709 48.9392 54.255 49.2501 54.28 49.561C54.7496 52.6749 55.2442 55.7839 55.6889 58.9003C62.4521 57.479 69.2493 56.2577 76.0396 55.0215C69.7484 48.8998 63.3664 42.8866 57.057 36.7822C56.8346 36.5527 56.5646 36.3923 56.2947 36.2368ZM81.2419 68.8021C80.9765 69.1081 80.7541 69.4609 80.6679 69.8755C82.1698 69.3055 83.5923 68.5209 85.0648 67.8694C93.3117 63.9585 101.604 60.1488 109.824 56.1861C105.318 54.0592 100.817 51.9199 96.3382 49.7239C91.288 56.0652 86.3012 62.4682 81.2419 68.8021ZM51.6619 52.5442C47.5872 57.4741 43.5624 62.4534 39.4741 67.371C37.8724 69.271 36.3818 71.2819 34.7188 73.1177C35.3608 73.4508 36.0006 73.7938 36.6223 74.1713C40.3952 75.9775 44.0479 78.0822 47.8277 79.8735C48.1498 77.1742 48.8214 74.5389 49.2592 71.8593C50.5978 64.8197 51.9454 57.7825 53.2545 50.738C52.6329 51.2389 52.1814 51.9298 51.6619 52.5442ZM53.5154 53.0525C53.132 55.3052 52.6215 57.5333 52.2472 59.791C53.1706 59.5122 54.1053 59.2729 55.0446 59.0607C54.643 56.6154 54.3186 54.1554 53.8807 51.7176C53.6584 52.1247 53.5926 52.5935 53.5154 53.0525ZM47.1334 56.2453C38.6074 64.489 30.0406 72.6859 21.5192 80.9321C20.6139 83.2145 19.9219 85.6128 19.0939 87.9396C18.6038 89.4941 17.9527 90.9992 17.6192 92.608C18.0253 92.4674 18.3043 92.1195 18.5675 91.7765C24.9178 84.0485 31.2453 76.2884 37.616 68.5727C39.0362 67.1564 40.0935 65.3897 41.4456 63.8969C43.297 61.6268 45.1619 59.3666 47.0064 57.0917C47.4034 56.5686 48.0591 56.1787 48.0976 55.4311C47.7528 55.6679 47.4352 55.9468 47.1334 56.2453ZM63.7339 58.1379C60.1561 58.8707 56.5465 59.4234 52.9913 60.2796C53.0934 60.5091 53.2613 60.6522 53.4905 60.7114C60.5032 63.4379 67.4842 66.2631 74.4901 69.0168C75.8423 69.5226 77.1513 70.174 78.5421 70.554C77.8297 65.6043 77.2217 60.6374 76.5978 55.6729C72.3166 56.5316 68.0219 57.3236 63.7339 58.1379ZM108.406 57.7307C103.787 59.8873 99.181 62.0759 94.564 64.2349C94.5754 64.3089 94.5981 64.4594 94.6094 64.5335C97.9921 66.3914 101.398 68.2149 104.71 70.2184C106.931 71.3954 109.08 72.7377 111.351 73.8036C117.51 77.2161 123.665 80.6409 129.83 84.0509C130.404 84.384 130.975 84.7369 131.608 84.9392C131.481 84.5567 131.295 84.2138 131.05 83.9127C124.246 74.8646 117.46 65.7993 110.668 56.7438C109.871 56.9165 109.17 57.442 108.406 57.7307ZM52.0044 60.9187C50.8542 67.2575 49.6449 73.5865 48.4107 79.9056C58.0915 77.0237 67.7655 74.1121 77.444 71.235C77.4758 71.1684 77.537 71.0376 77.5688 70.971C69.0065 67.7485 60.5531 64.1806 52.0044 60.9187ZM81.1557 70.5219C80.8358 70.6897 80.4728 70.7884 80.2073 71.0574C80.7609 71.43 81.4529 71.4398 82.0655 71.6594C87.0885 73.1029 92.1433 74.4254 97.1368 75.9701C98.7612 76.2143 100.259 76.9768 101.874 77.263C104.624 77.8774 107.276 78.9088 110.019 79.533C111.169 80.0364 112.415 80.1302 113.594 80.5175C118.765 81.9684 123.935 83.4242 129.108 84.8701C129.079 84.7689 129.022 84.5666 128.992 84.4655C123.207 81.2183 117.39 78.0254 111.593 74.7956C109.016 73.1399 106.262 71.8322 103.637 70.2703C100.163 68.5949 96.86 66.537 93.4365 64.7481C89.3436 66.6752 85.2599 68.622 81.1557 70.5219ZM49.1572 80.4707C49.4044 80.6878 49.6699 80.8827 49.9694 81.011C57.0161 84.5 64.0062 88.137 71.0801 91.5593C71.7086 89.4768 72.5752 87.493 73.2876 85.4475C74.9302 80.8803 76.6976 76.3648 78.2789 71.7729C68.5641 74.6426 58.8674 77.5788 49.1572 80.4707ZM79.7876 71.8272C87.3494 83.0837 94.893 94.3525 102.448 105.611C102.521 105.668 102.664 105.782 102.736 105.838C112.664 99.4354 122.604 93.0497 132.511 86.6072C126.787 85.0132 121.068 83.397 115.346 81.8006C114.032 81.4009 112.687 81.1221 111.4 80.6187C110.738 80.3448 110.014 80.3621 109.352 80.0956C107.852 79.4294 106.191 79.3973 104.692 78.7262C102.641 78.3684 100.719 77.4629 98.6682 77.1174C96.8214 76.3673 94.8681 76.091 92.9782 75.5136C88.5813 74.2823 84.1913 73.0239 79.7876 71.8272ZM78.1087 74.6623C76.5478 79.2937 74.9597 83.9152 73.3897 88.5441C72.7318 90.4268 72.1555 92.344 71.3751 94.1724C69.2561 99.3441 67.2233 104.558 65.0702 109.715C73.8821 120.542 82.6281 131.433 91.4354 142.265C91.8393 142.788 92.2431 143.324 92.7694 143.714C92.681 143.136 92.5789 142.566 92.47 141.996C87.9257 118.901 83.4063 95.7984 78.8597 72.7032C78.5239 73.3126 78.3288 73.9961 78.1087 74.6623ZM79.6969 73.1818C84.1641 96.2944 88.7696 119.38 93.264 142.487C93.3321 142.818 93.3684 143.181 93.6112 143.432C96.4176 131.1 99.3352 118.795 102.169 106.468C94.775 95.5147 87.4379 84.5148 80.0758 73.5372C79.9827 73.4483 79.7922 73.2707 79.6969 73.1818ZM29.9453 79.0198C28.8903 80.3769 27.7378 81.6402 26.7055 83.0195C32.8584 85.7979 38.9931 88.6379 45.1369 91.4557C41.584 85.5437 37.7861 79.7971 34.2015 73.9023C32.7177 75.5432 31.3928 77.3419 29.9453 79.0198ZM35.5106 74.4797C35.8554 75.4519 36.5565 76.1971 37.0216 77.0977C40.098 81.9783 43.1903 86.8515 46.2305 91.7592C46.3212 91.9443 46.4641 92.0232 46.6592 91.9961C54.2528 92.0282 61.8463 91.9763 69.4421 92.0158C69.3854 91.357 68.6707 91.3126 68.2465 91.0363C58.0802 85.904 47.8594 80.8951 37.7884 75.5432C37.0738 75.0892 36.3251 74.6796 35.5106 74.4797ZM26.4991 83.7474C26.5331 86.4912 26.8054 89.2227 26.9075 91.964C32.5408 92.0578 38.1764 91.9443 43.8097 92.0183C43.7779 91.927 43.7144 91.7469 43.6804 91.658C37.9608 89.008 32.2254 86.3851 26.4991 83.7474ZM16.7911 95.0014C17.2743 96.0723 17.9028 97.0519 18.4518 98.0833C19.0939 99.1813 19.6111 100.393 20.5005 101.293C22.8441 103.842 25.0788 106.505 27.4293 109.044C27.8444 109.522 28.1984 110.105 28.7724 110.379C27.9579 104.348 27.005 98.3374 26.2064 92.3045C26.1451 89.5731 25.8797 86.8539 25.8162 84.1225C22.7352 87.6781 19.8539 91.4261 16.7911 95.0014ZM129.147 89.6866C126.944 91.1646 124.664 92.4945 122.477 93.9996C116.058 98.1672 109.595 102.261 103.201 106.475C104.667 107.529 106.092 108.646 107.535 109.735C107.748 109.905 108 110.063 108.109 110.344C108.521 110.406 108.844 110.724 109.179 110.973C114.724 115.222 120.328 119.387 125.846 123.678C128.278 111.57 130.526 99.4157 132.929 87.303C131.626 88.0186 130.417 88.9093 129.147 89.6866ZM133.326 88.6478C133.217 89.2868 133.11 89.9259 132.985 90.5625C130.803 101.75 128.707 112.957 126.474 124.132C131.277 127.461 136.01 130.905 140.792 134.266C141.545 134.782 142.24 135.401 143.063 135.786C139.996 120.744 136.972 105.693 133.922 90.6464C133.764 89.9901 133.648 89.3238 133.598 88.6502L133.326 88.6478ZM32.9265 92.8029C31.4109 95.411 29.8069 97.9624 28.2029 100.506C30.1268 102.275 32.1891 103.864 34.1108 105.644C37.1827 102.219 40.157 98.6878 43.1949 95.226C39.7622 94.466 36.3636 93.5358 32.9265 92.8029ZM47.172 92.7338C49.9013 95.4234 52.7372 97.9846 55.5006 100.635C58.5566 103.472 61.5378 106.406 64.6369 109.184C64.7639 108.328 65.1383 107.558 65.4264 106.759C67.1643 102.081 68.8568 97.3825 70.6241 92.719C62.806 92.7684 54.9901 92.7141 47.172 92.7338ZM46.7682 93.5703C48.0863 99.3688 49.2524 105.209 50.532 111.018C51.6641 116.461 52.8779 121.882 53.9919 127.327C54.7905 126.269 55.3554 125.035 56.0519 123.9C58.7994 119.229 61.5241 114.539 64.2466 109.848C58.8697 104.805 53.5041 99.7439 48.1385 94.6856C47.6893 94.3105 47.3308 93.7282 46.7682 93.5703ZM44.6673 95.9169C40.5971 103.378 36.5565 110.857 32.4818 118.314C30.5397 122.01 28.4389 125.613 26.5649 129.346C32.0008 127.187 37.4322 125.015 42.8636 122.851C43.7734 113.369 44.7444 103.889 45.6224 94.4043C45.1596 94.7868 44.9645 95.3987 44.6673 95.9169ZM46.2736 94.9397C44.6264 112.012 42.9612 129.082 41.2778 146.151C41.7769 145.759 42.0696 145.157 42.4303 144.632C46.117 139.156 49.8196 133.693 53.5086 128.216C51.2467 117.729 49.0233 107.233 46.7682 96.7434C46.6366 96.1315 46.573 95.49 46.2736 94.9397ZM40.8059 99.1837C37.1554 103.208 33.6525 107.386 30.052 111.462C29.4417 112.138 29.0197 112.969 28.5319 113.747C24.9495 119.481 21.4352 125.262 17.8483 130.992C17.3741 131.793 16.8115 132.539 16.4576 133.419C19.4478 132.21 22.438 131.001 25.4373 129.827C30.728 120.056 36.0574 110.312 41.3118 100.519C42.2079 98.8704 43.0769 97.195 44.1523 95.6701L43.5737 95.791C42.698 96.9655 41.7179 98.0413 40.8059 99.1837ZM16.7094 96.6423C16.6822 98.7273 16.7389 100.81 16.7139 102.892C16.4167 112.792 16.1558 122.691 15.8541 132.59C16.4235 132.198 16.6912 131.502 17.0565 130.918C21.0132 124.554 24.9404 118.168 28.879 111.79C25.6823 108.232 22.5129 104.644 19.3366 101.064C18.6151 99.9758 18.023 98.789 17.4218 97.6194C17.66 97.3504 17.5148 97.153 17.1949 97.1234C17.0724 97.0025 16.8296 96.7632 16.7094 96.6423ZM15.3323 106.764C11.2281 116.216 7.10348 125.659 2.98568 135.107C6.90156 134.725 10.8129 134.281 14.7288 133.893C15.4548 133.952 15.094 132.973 15.1825 132.504C15.4344 123.594 15.6612 114.682 15.9562 105.774C15.5705 105.937 15.5115 106.416 15.3323 106.764ZM102.992 107.26C104.054 116.32 105.08 125.383 106.162 134.441C118.127 135.021 130.097 135.628 142.063 136.235C141.611 135.571 140.867 135.29 140.273 134.814C134.106 130.34 127.781 126.123 121.737 121.45C115.477 116.74 109.275 111.933 102.992 107.26ZM102.307 108.871C101.958 110.68 101.486 112.459 101.087 114.255C98.6591 124.608 96.2996 134.981 93.8494 145.33C99.1878 156.653 104.572 167.949 109.917 179.272C110.214 179.839 110.375 180.523 110.872 180.935C109.585 170.229 108.374 159.513 107.124 148.802C107.054 147.035 106.672 145.313 106.534 143.556C105.15 131.998 103.816 120.433 102.498 108.868L102.307 108.871ZM61.928 115.247C59.4142 119.582 56.846 123.883 54.3685 128.245C58.0643 131.485 61.7351 134.767 65.465 137.962C65.0611 129.04 64.7798 120.108 64.376 111.185C63.4639 112.464 62.7515 113.9 61.928 115.247ZM65.077 111.213C65.4445 120.305 65.8189 129.4 66.1456 138.497C74.084 140.412 82.0337 142.278 89.9766 144.178C90.7684 144.355 91.5534 144.632 92.3724 144.609C83.6967 133.886 75.0255 123.16 66.3475 112.439C65.9573 111.995 65.676 111.351 65.077 111.213ZM16.4508 134.175C16.8932 134.599 17.4535 134.811 17.9731 135.095C24.0534 138.386 30.1972 141.542 36.2275 144.94C37.6818 145.641 39.0272 146.645 40.5676 147.119C40.7083 145.628 40.7423 144.126 40.9284 142.64C41.5591 136.321 42.1467 129.997 42.7933 123.681C34.0177 127.192 25.2399 130.705 16.4508 134.175ZM41.7134 146.968C49.5201 144.244 57.3065 141.439 65.102 138.665C61.3857 135.398 57.6695 132.136 53.9578 128.862C49.8537 134.88 45.8175 140.95 41.7134 146.968ZM16.0651 134.944C18.3701 141.977 20.5345 149.066 22.8509 156.093C24.4027 155.34 25.9205 154.501 27.52 153.87C28.6385 153.403 29.6572 152.707 30.7553 152.199C32.8697 151.4 34.8413 150.228 36.9059 149.295C37.9223 148.836 38.823 148.081 39.9142 147.827C39.8053 147.412 39.3811 147.343 39.0907 147.148C37.4458 146.226 35.7601 145.392 34.1198 144.461C32.4614 143.783 30.9141 142.835 29.3191 142.004C24.886 139.684 20.5028 137.249 16.0651 134.944ZM6.80854 146.406C11.8656 149.522 16.8932 152.7 21.982 155.757C19.804 148.814 17.5216 141.91 15.3981 134.949C12.485 138.72 9.68532 142.603 6.80854 146.406ZM106.25 135.162C107.233 144.567 108.453 153.934 109.508 163.337C110.225 169.688 111.015 176.03 111.695 182.386C112.326 181.688 112.782 180.834 113.354 180.081C122.765 166.38 132.164 152.666 141.566 138.956C142.011 138.298 142.535 137.691 142.83 136.933C138.832 136.921 134.846 136.565 130.855 136.425C122.656 135.968 114.45 135.643 106.25 135.162ZM128.305 159.569C123.091 167.177 117.848 174.754 112.678 182.393C126.002 175.748 139.274 168.98 152.597 162.328C149.631 154.018 146.491 145.776 143.508 137.474C138.387 144.794 133.387 152.216 128.305 159.569ZM144.66 138.354C144.812 139.139 145.135 139.864 145.407 140.607C148.036 147.795 150.686 154.973 153.318 162.158C160.39 162.686 167.452 163.406 174.524 163.944C173.303 162.56 171.729 161.593 170.481 160.231C168.646 158.602 166.749 157.055 164.93 155.409C162.863 153.788 160.859 152.078 158.874 150.346C154.525 146.62 150.203 142.862 145.852 139.141C145.486 138.826 145.126 138.475 144.66 138.354ZM42.2125 147.627C42.1898 147.731 42.1422 147.94 42.1172 148.046C42.7661 148.202 43.3877 148.463 43.9935 148.757C49.3023 151.244 54.677 153.564 59.9564 156.117C60.2604 155.525 60.4442 154.876 60.6303 154.235C62.1844 149.295 63.718 144.348 65.2767 139.408C57.5901 142.152 49.89 144.854 42.2125 147.627ZM66.0231 139.294C64.317 144.878 62.5746 150.455 60.8004 156.014C70.4041 152.821 79.9873 149.542 89.5818 146.319C90.3578 145.996 91.2176 145.91 91.9277 145.419C83.2929 143.383 74.6739 141.249 66.0231 139.294ZM73.4828 152.552C69.2266 153.949 65.0112 155.486 60.7346 156.803C65.2494 168.724 69.8437 180.607 74.3925 192.51C79.3384 180.173 84.2117 167.801 89.1213 155.444C90.3283 152.3 91.6646 149.211 92.8012 146.04C86.3579 148.197 79.9238 150.386 73.4828 152.552ZM85.8271 165.666C82.2152 174.764 78.6011 183.861 75.0119 192.971C79.0163 191.856 83.0297 190.792 87.0363 189.687C95.0064 187.56 102.949 185.3 110.933 183.247C110.745 182.561 110.409 181.944 110.094 181.322C104.581 169.661 99.0675 158.008 93.5499 146.354C90.8728 152.74 88.4293 159.241 85.8271 165.666ZM40.9306 148.116C40.5563 150.378 39.6261 152.463 39.1043 154.684C38.6778 156.421 38.047 158.094 37.7113 159.858C37.2711 161.617 36.713 163.342 36.2638 165.101C43.1449 162.525 50.042 160.006 56.9254 157.443C57.6877 157.139 58.5022 156.969 59.1987 156.5C54.0872 154.257 49.0278 151.873 43.939 149.569C42.9158 149.13 41.9833 148.471 40.9306 148.116ZM36.7697 150.016C35.717 150.635 34.6303 151.185 33.5163 151.666C31.8738 152.263 30.4354 153.369 28.7746 153.926C26.971 154.849 25.1877 155.821 23.3546 156.683C27.3952 159.471 31.4427 162.244 35.4493 165.089C36.1368 163.337 36.4203 161.432 37.1078 159.68C37.7521 157.822 38.0266 155.846 38.671 153.991C39.3221 152.212 39.6942 150.336 40.157 148.493C39.0317 149.011 37.8542 149.394 36.7697 150.016ZM60.2922 158.383C60.2831 158.79 60.265 159.197 60.2378 159.606C56.8641 187.111 53.5608 214.628 50.1667 242.13L50.4957 241.967C58.3184 225.788 66.2431 209.658 74.0182 193.45C69.5737 181.838 65.077 170.246 60.7006 158.607C60.5985 158.55 60.3943 158.439 60.2922 158.383ZM121.049 179.065C121.242 190.03 121.435 200.998 121.601 211.968C121.664 215.773 121.805 219.578 121.773 223.382C134.773 210.08 147.689 196.672 160.657 183.331C158.067 176.55 155.467 169.772 152.882 162.989C142.285 168.376 131.642 173.663 121.049 179.065ZM153.631 162.886C159.364 178.12 165.249 193.287 171.032 208.499C172.675 212.661 174.147 216.898 175.838 221.036C176.151 221.749 176.13 222.667 176.797 223.15C176.335 203.692 175.922 184.232 175.472 164.771C168.19 164.188 160.909 163.554 153.631 162.886ZM176.18 165.022C176.389 175.953 176.693 186.882 176.888 197.81C186.846 191.767 196.801 185.712 206.734 179.62C196.567 174.712 186.356 169.91 176.18 165.022ZM112.188 183.494C111.872 183.632 111.614 183.874 111.453 184.202C104.769 195.646 97.9876 207.021 91.3379 218.485C93.8516 218.934 96.3813 219.291 98.8679 219.898C100.996 220.261 103.135 220.535 105.252 220.967C107.251 221.27 109.202 221.875 111.221 222.04C114.531 222.605 117.832 223.239 121.14 223.812C120.873 209.01 120.607 194.205 120.382 179.398C117.644 180.747 114.922 182.137 112.188 183.494ZM205.801 182.914C197.071 196.127 188.329 209.325 179.617 222.548C179.134 223.291 178.567 223.982 178.213 224.816C188.454 221.719 198.652 218.45 208.889 215.336C208.399 203.821 207.764 192.307 207.321 180.792C206.679 181.374 206.303 182.203 205.801 182.914ZM207.977 180.817C208.485 192.246 209.077 203.675 209.563 215.107C214.032 213.94 218.49 212.721 222.953 211.521C224.936 210.934 226.966 210.532 228.922 209.846C221.912 200.193 215.003 190.452 207.977 180.817ZM202.7 182.978C194.119 188.219 185.525 193.435 176.943 198.669C176.943 202.197 177.151 205.72 177.14 209.249C177.185 212.284 177.405 215.319 177.303 218.351C177.464 220.343 177.433 222.344 177.483 224.34C180.107 220.678 182.415 216.752 185.072 213.115C186.294 210.959 187.746 208.97 189.092 206.905C194.321 198.955 199.571 191.019 204.819 183.082C205.184 182.517 205.649 181.996 205.797 181.305C204.651 181.564 203.737 182.433 202.7 182.978ZM75.0006 193.719C80.1325 201.807 85.4096 209.787 90.5801 217.848C90.8887 217.979 90.9953 217.5 91.1586 217.32C97.6541 206.209 104.227 195.152 110.704 184.029C98.8021 187.257 86.9115 190.543 75.0006 193.719ZM122.608 223.644C122.111 224.219 123.01 224.347 123.366 224.419C134.653 227.626 145.924 230.891 157.209 234.106C157.211 233.926 157.216 233.568 157.216 233.39C158.355 217.053 159.553 200.721 160.633 184.382C147.998 197.514 135.252 210.525 122.608 223.644ZM161.293 185.258C160.726 195.066 160.04 204.867 159.419 214.67C158.947 221.1 158.579 227.543 157.942 233.958C159.911 233.075 161.862 232.149 163.825 231.256C168.165 229.418 172.376 227.249 176.713 225.403C175.908 223.197 175.168 220.964 174.227 218.818C170.236 208.422 166.279 198.012 162.291 187.617C161.962 186.827 161.774 185.961 161.293 185.258ZM74.4016 194.267C66.4836 210.739 58.4341 227.14 50.5093 243.606C52.4332 242.693 54.1348 241.303 56.0043 240.262C67.3889 233.025 78.8007 225.833 90.208 218.64C87.1566 213.833 84.0347 209.084 80.9492 204.302C78.7485 200.971 76.6499 197.558 74.4016 194.267ZM177.455 225.879C173.356 227.715 169.263 229.576 165.179 231.436C163.003 232.551 160.719 233.413 158.566 234.575C159.389 234.784 160.201 235.058 160.977 235.433C161.742 235.5 162.463 235.796 163.192 236.045C183.935 242.848 204.685 249.619 225.435 256.404C219.999 242.947 214.488 229.524 209.091 216.052C198.543 219.316 187.996 222.593 177.455 225.879ZM90.9635 219.158C87.1475 229.625 83.3496 240.102 79.5381 250.571C79.3384 251.294 79.495 252.061 79.5245 252.804C80.2913 273.091 81.1897 293.371 81.9293 313.661L82.2288 313.491C89.1145 295.382 95.9208 277.234 102.788 259.113C103.387 257.574 103.861 255.96 104.719 254.559C110.121 244.553 115.509 234.54 120.927 224.545C118.273 224.071 115.62 223.592 112.968 223.113C111.441 222.882 109.955 222.395 108.413 222.287C105.329 221.749 102.239 221.236 99.1832 220.545C96.429 220.192 93.6996 219.654 90.9635 219.158ZM85.8702 222.262C73.9002 229.818 61.9393 237.383 49.9716 244.936C60.1538 267.421 70.3178 289.912 80.4977 312.398C80.7178 312.847 80.8381 313.395 81.2464 313.706C80.4637 292.722 79.5585 271.747 78.7508 250.769C82.4239 240.356 86.3307 230.027 90.0038 219.612C88.6494 220.537 87.2428 221.371 85.8702 222.262ZM122.034 224.804C125.136 234.863 128.355 244.879 131.438 254.943C136.316 251.158 141.092 247.215 145.933 243.374C149.488 240.467 153.134 237.689 156.649 234.723C145.107 231.429 133.568 228.122 122.034 224.804ZM120.269 227.271C115.076 236.887 109.876 246.495 104.705 256.125C109.758 266.952 114.915 277.723 119.974 288.548C120.444 288.106 120.555 287.42 120.759 286.818C124.124 276.423 127.554 266.047 130.885 255.639C129.836 251.842 128.539 248.121 127.411 244.348C125.43 237.965 123.364 231.616 121.44 225.213C120.938 225.818 120.675 226.595 120.269 227.271ZM133.827 254.023C133.55 254.201 133.369 254.462 133.287 254.808C144.74 252.686 156.172 250.448 167.625 248.331C165.907 246.053 164.151 243.81 162.407 241.558C160.737 239.423 159.246 237.131 157.456 235.113C149.552 241.373 141.72 247.741 133.827 254.023ZM158.702 235.372C158.765 235.51 158.895 235.781 158.96 235.919C167.629 247.087 176.237 258.316 184.922 269.469C191.803 266.397 198.65 263.222 205.518 260.105C209.465 258.361 213.352 256.441 217.333 254.786C217.247 254.307 216.721 254.373 216.394 254.228C199.905 248.844 183.42 243.44 166.928 238.056C164.775 237.289 162.556 236.739 160.446 235.838C159.841 235.796 159.278 235.542 158.702 235.372ZM131.851 255.866C134.81 262.533 137.881 269.144 140.881 275.791C144.924 284.627 148.917 293.495 152.982 302.318C157.96 284.572 162.854 266.795 167.799 249.036C155.818 251.316 143.835 253.594 131.851 255.866ZM131.325 256.604C127.928 267.13 124.475 277.634 121.061 288.15C120.857 288.881 120.448 289.609 120.598 290.398C121.771 299.493 122.93 308.588 124.092 317.683C124.872 317.387 125.596 316.95 126.347 316.585C135.095 312.156 143.812 307.653 152.578 303.268C147.714 292.409 142.732 281.612 137.822 270.775C135.635 266.062 133.566 261.285 131.325 256.604Z" fill="url(#paint00_linear)" />
        <defs>
          <linearGradient id="paint00_linear" x1="115.001" y1="0" x2="115.001" y2="318.764" gradientUnits="userSpaceOnUse">
            <stop stopColor="#3A3A3A" />
            <stop offset="0.555208" stopColor="#282828" stopOpacity="0.2" />
            <stop offset="1" stopColor="white" stopOpacity="0" />
          </linearGradient>
        </defs>
      </svg>
