<svg class="menu-texture" width="161" height="364" viewBox="0 0 161 364" fill="none" xmlns="http://www.w3.org/2000/svg">
            <path opacity="0.96" d="M57.9775 0.855783C57.8662 0.453227 58.2933 -0.284322 58.6272 0.278692C61.2622 5.07839 63.76 9.97381 66.3458 14.8101C66.6849 15.4548 66.9825 16.136 67.4355 16.7046C68.2586 11.5024 69.118 6.30858 69.9385 1.10632C70.0084 0.726289 70.1326 0.363145 70.2517 0C70.5882 0.216761 70.9117 0.470117 71.1602 0.802296C80.3438 12.0344 89.5171 23.2778 98.7111 34.5015C99.3582 35.2729 99.762 36.2328 100.228 37.1336C102.878 42.0994 105.441 47.1159 108.084 52.0845C108.682 53.3344 109.435 54.4942 109.929 55.8032C114.935 58.2411 119.975 60.6085 124.991 63.0239C125.68 63.387 126.513 63.5756 126.974 64.3019C132.712 71.9364 138.417 79.599 144.176 87.2138C146.943 91.0113 149.853 94.6935 152.578 98.5248C156.458 117.467 160.258 136.435 164.094 155.389C164.161 155.645 164.298 155.848 164.513 156.006C170.93 161.501 177.326 167.024 183.727 172.542C185.891 174.304 187.84 176.362 190.066 178.042C191.906 179.382 193.418 181.173 195.238 182.549C197.07 183.912 198.729 185.525 200.502 186.977C201.124 187.498 201.885 187.751 202.594 188.095C213.928 193.503 225.26 198.907 236.603 204.296C236.89 204.428 237.159 204.619 237.351 204.901C243.956 214.131 250.619 223.314 257.227 232.545C257.659 233.378 258.498 233.935 258.739 234.884C258.801 234.898 258.922 234.924 258.985 234.938C260.064 236.644 261.42 238.136 262.406 239.915C261.262 240.514 259.979 240.63 258.775 241.027C252.273 242.764 245.781 244.523 239.282 246.263C245.437 261.315 251.512 276.406 257.646 291.47C257.936 292.154 258.26 292.844 258.296 293.615C257.274 293.587 256.326 293.142 255.361 292.841C253.355 292.202 251.364 291.495 249.351 290.893C236.512 296.757 223.661 302.59 210.835 308.479C209.285 306.832 208.037 304.884 206.583 303.144C202.969 298.432 199.319 293.756 195.706 289.046C194.515 287.543 193.4 285.969 192.134 284.542C186.489 305.089 180.724 325.597 175.061 346.139C174.986 346.491 174.642 346.609 174.385 346.766C163.317 352.405 152.237 358.013 141.176 363.674C140.635 362.987 140.767 362.035 140.628 361.208C139.416 351.822 138.215 342.434 137.017 333.049C136.877 332.01 136.864 330.906 136.359 329.977C131.988 320.724 127.623 311.468 123.267 302.207C121.841 299.248 120.436 296.278 119.092 293.28C118.088 295.47 117.36 297.807 116.457 300.053C109.82 317.625 103.173 335.194 96.5498 352.771C95.5636 355.471 94.4506 358.114 93.5291 360.842C93.3868 360.842 93.102 360.842 92.9623 360.842C80.7321 333.871 68.5433 306.868 56.3183 279.892C55.9378 279.064 56.2666 278.129 56.3339 277.265C60.3148 244.616 64.3139 211.964 68.2664 179.309C59.2562 182.662 50.2356 185.978 41.2254 189.322C40.9122 189.469 40.5602 189.457 40.2884 189.224C35.254 185.781 30.2635 182.262 25.2317 178.819C19.1283 175.067 13.0248 171.297 6.94985 167.5C4.60993 165 2.26744 162.495 0 159.913C5.91449 146.356 11.8212 132.793 17.7409 119.235C18.0101 118.658 18.331 118.064 18.2818 117.389C18.2637 114.576 18.2844 111.761 18.2663 108.946C18.212 108.034 18.6416 107.226 18.9108 106.396C20.4587 101.711 22.0713 97.0497 23.6165 92.3654C23.7123 92.0501 23.8961 91.7883 24.1264 91.5772C36.4498 79.737 48.7499 67.863 61.0758 56.0228C60.0223 37.6347 59.0206 19.2438 57.9775 0.855783ZM70.4536 2.69121C68.5692 15.1423 66.4312 27.5483 64.508 39.9909C70.2491 39.9009 75.9953 39.9712 81.7364 39.9572C78.1023 27.6018 74.331 15.2887 70.759 2.9136C70.6839 2.8573 70.5312 2.7447 70.4536 2.69121ZM58.8938 2.69966C59.2639 10.4383 59.735 18.1741 60.1569 25.9128C60.597 34.4424 61.1845 42.9665 61.521 51.499L61.8912 51.5159C63.5503 40.3259 65.5537 29.1979 67.2025 18.008C64.728 13.6306 62.4684 9.1124 60.0793 4.67865C59.6884 4.01711 59.4477 3.23452 58.8938 2.69966ZM71.8875 3.33305C74.3879 9.86683 76.8003 16.4428 79.2904 22.9823C79.3939 23.3032 79.6916 23.4496 79.94 23.6128C85.0444 26.594 90.1073 29.654 95.1986 32.6577C95.5325 32.8998 95.9337 32.9336 96.3272 32.9617C92.3488 27.9706 88.2592 23.0808 84.2471 18.1234C80.2222 13.2506 76.2697 8.31291 72.224 3.46254L71.8875 3.33305ZM76.0109 17.6561C76.0756 17.9827 76.1506 18.3064 76.2386 18.6273C78.3508 25.6341 80.4241 32.6549 82.5284 39.6644C83.3852 42.9186 84.0763 46.2263 84.9331 49.4777C85.0262 49.5115 85.2178 49.5735 85.3136 49.6072C85.298 49.2019 85.4016 48.8443 85.6216 48.5375C85.3187 45.7928 84.9745 43.0509 84.6975 40.3006C84.6147 39.4251 84.2756 38.62 83.965 37.8205C81.4439 31.1685 78.9927 24.4855 76.4509 17.8448C76.3422 17.7969 76.1222 17.704 76.0109 17.6561ZM80.1704 24.7107C80.1394 25.071 80.1833 25.4173 80.305 25.7495C81.9435 29.989 83.4784 34.2763 85.1298 38.5102C85.342 39.0704 85.4352 39.67 85.518 40.2668C86.9986 52.7432 88.5258 65.2196 90.0167 77.6932C90.0736 77.7889 90.1823 77.9775 90.2367 78.0733C92.9493 63.8909 95.6464 49.7029 98.3746 35.5234C92.3074 31.9173 86.2221 28.345 80.1704 24.7107ZM98.856 36.976C96.2495 51.057 93.5032 65.107 90.8268 79.1711C91.3808 79.0979 91.5982 78.4983 91.9424 78.1155C97.7612 70.8076 103.513 63.4349 109.357 56.1523C108.697 55.1304 108.179 54.0128 107.602 52.9347C104.781 47.5663 102.011 42.1642 99.1356 36.8324L98.856 36.976ZM65.1241 40.8158C72.1205 47.586 79.1765 54.2831 86.1962 61.028C86.4084 61.2363 86.6544 61.3771 86.9339 61.4531C85.2592 54.5758 83.6052 47.6902 81.9978 40.7932C76.3732 40.8214 70.7486 40.7735 65.1241 40.8158ZM64.2259 41.3422C63.5658 46.0715 62.7298 50.7699 61.9869 55.4851C61.917 55.8342 61.8989 56.1889 61.9274 56.5436C62.4632 60.0962 63.0275 63.6432 63.5348 67.1986C71.2508 65.5771 79.0056 64.1837 86.7527 62.7733C79.5751 55.7891 72.2939 48.9288 65.0956 41.9643C64.8419 41.7025 64.5339 41.5195 64.2259 41.3422ZM92.6879 78.4955C92.3851 78.8446 92.1314 79.2471 92.033 79.7201C93.7466 79.0698 95.3695 78.1746 97.0493 77.4314C106.458 72.9695 115.919 68.6231 125.297 64.1021C120.156 61.6755 115.021 59.2348 109.911 56.7294C104.149 63.9641 98.46 71.2692 92.6879 78.4955ZM58.9404 59.947C54.2916 65.5715 49.6998 71.2523 45.0355 76.8628C43.2081 79.0304 41.5075 81.3247 39.6102 83.4191C40.3428 83.7991 41.0727 84.1904 41.7819 84.6211C46.0864 86.6818 50.2537 89.083 54.566 91.1268C54.9335 88.0471 55.6997 85.0406 56.1993 81.9834C57.7264 73.952 59.2639 65.9234 60.7574 57.8864C60.0482 58.4578 59.5331 59.246 58.9404 59.947ZM61.0551 60.5269C60.6177 63.0971 60.0353 65.6391 59.6082 68.2149C60.6617 67.8968 61.7281 67.6237 62.7997 67.3816C62.3415 64.5919 61.9714 61.7852 61.4718 59.004C61.2182 59.4684 61.1431 60.0033 61.0551 60.5269ZM53.7739 64.1696C44.0467 73.5748 34.273 82.9265 24.5509 92.3344C23.5182 94.9384 22.7287 97.6746 21.7839 100.329C21.2249 102.103 20.482 103.82 20.1015 105.655C20.5648 105.495 20.8832 105.098 21.1834 104.707C28.4284 95.8899 35.6474 87.0365 42.9156 78.2337C44.536 76.6179 45.7421 74.6023 47.2848 72.8992C49.397 70.3093 51.5246 67.7307 53.629 65.1352C54.082 64.5384 54.83 64.0936 54.874 63.2406C54.4806 63.5109 54.1182 63.829 53.7739 64.1696ZM72.7132 66.3288C68.6313 67.1648 64.5132 67.7954 60.4572 68.7723C60.5737 69.0341 60.7652 69.1973 61.0266 69.2649C69.0274 72.3756 76.9919 75.5988 84.9848 78.7404C86.5275 79.3175 88.021 80.0607 89.6077 80.4942C88.7949 74.8472 88.1013 69.1804 87.3895 63.5165C82.5051 64.4962 77.6053 65.3998 72.7132 66.3288ZM123.679 65.8643C118.409 68.3247 113.154 70.8216 107.887 73.2848C107.9 73.3693 107.926 73.541 107.939 73.6255C111.798 75.7452 115.683 77.8255 119.462 80.1114C121.996 81.4542 124.448 82.9856 127.039 84.2017C134.066 88.0949 141.088 92.0023 148.121 95.8927C148.776 96.2727 149.428 96.6753 150.15 96.9061C150.005 96.4698 149.793 96.0785 149.514 95.735C141.751 85.4122 134.009 75.0696 126.259 64.7383C125.351 64.9353 124.551 65.5349 123.679 65.8643ZM59.3312 69.5014C58.0189 76.7333 56.6393 83.9539 55.2312 91.1634C66.2759 87.8754 77.3128 84.5536 88.3549 81.2712C88.3912 81.1952 88.461 81.046 88.4973 80.97C78.7287 77.2935 69.0843 73.2229 59.3312 69.5014ZM92.5895 80.4576C92.2246 80.6491 91.8104 80.7617 91.5076 81.0685C92.1392 81.4936 92.9286 81.5048 93.6275 81.7554C99.3582 83.4022 105.125 84.9111 110.822 86.6733C112.675 86.952 114.384 87.8219 116.227 88.1484C119.364 88.8494 122.39 90.0261 125.519 90.7383C126.831 91.3126 128.252 91.4195 129.598 91.8615C135.497 93.5168 141.396 95.1777 147.298 96.8273C147.264 96.7119 147.2 96.481 147.166 96.3656C140.565 92.661 133.929 89.0183 127.315 85.3333C124.375 83.4444 121.233 81.9524 118.238 80.1705C114.275 78.2591 110.506 75.9113 106.601 73.8704C101.931 76.0689 97.2719 78.29 92.5895 80.4576ZM56.0828 91.808C56.3649 92.0557 56.6678 92.2781 57.0094 92.4245C65.049 96.405 73.0238 100.554 81.0945 104.459C81.8115 102.083 82.8002 99.8197 83.613 97.486C85.487 92.2753 87.5033 87.1237 89.3074 81.8849C78.2239 85.1588 67.1611 88.5087 56.0828 91.808ZM91.0287 81.9468C99.6559 94.7892 108.262 107.646 116.882 120.491C116.964 120.556 117.128 120.685 117.21 120.75C128.537 113.445 139.877 106.159 151.18 98.8091C144.65 96.9906 138.125 95.1467 131.597 93.3253C130.098 92.8693 128.563 92.5512 127.095 91.9769C126.34 91.6644 125.514 91.6841 124.758 91.3801C123.047 90.62 121.152 90.5835 119.442 89.8177C117.102 89.4096 114.909 88.3764 112.569 87.9823C110.462 87.1265 108.234 86.8113 106.078 86.1525C101.061 84.7478 96.0528 83.3121 91.0287 81.9468ZM89.1133 85.1813C87.3325 90.4652 85.5206 95.7379 83.7295 101.019C82.9788 103.167 82.3214 105.354 81.431 107.44C79.0134 113.341 76.6942 119.289 74.2378 125.172C84.2911 137.525 94.2694 149.951 104.318 162.309C104.778 162.906 105.239 163.516 105.84 163.961C105.739 163.302 105.622 162.652 105.498 162.002C100.313 135.653 95.1572 109.295 89.9701 82.9462C89.587 83.6415 89.3644 84.4213 89.1133 85.1813ZM90.9252 83.4923C96.0218 109.861 101.276 136.199 106.404 162.562C106.481 162.939 106.523 163.353 106.8 163.64C110.002 149.571 113.33 135.532 116.563 121.468C108.128 108.972 99.7568 96.4219 91.3575 83.8977C91.2513 83.7963 91.0339 83.5936 90.9252 83.4923ZM34.1642 90.1527C32.9606 91.701 31.6457 93.1423 30.468 94.716C37.4877 97.8857 44.4868 101.126 51.4962 104.341C47.4427 97.5958 43.1097 91.0395 39.0201 84.3143C37.3273 86.1863 35.8156 88.2385 34.1642 90.1527ZM40.5136 84.973C40.907 86.0822 41.7068 86.9323 42.2375 87.9598C45.7473 93.528 49.2753 99.0878 52.7438 104.687C52.8473 104.898 53.0104 104.988 53.233 104.957C61.8963 104.994 70.5597 104.935 79.2256 104.98C79.1609 104.228 78.3456 104.177 77.8616 103.862C66.263 98.0068 54.6022 92.2922 43.1123 86.1863C42.297 85.6683 41.4428 85.201 40.5136 84.973ZM30.2325 95.5464C30.2713 98.6768 30.5819 101.793 30.6984 104.921C37.1254 105.028 43.555 104.898 49.9819 104.983C49.9457 104.878 49.8732 104.673 49.8344 104.572C43.3091 101.548 36.7656 98.5557 30.2325 95.5464ZM19.1567 108.386C19.7081 109.608 20.425 110.725 21.0514 111.902C21.7839 113.155 22.3741 114.537 23.3888 115.564C26.0626 118.472 28.6121 121.51 31.2937 124.407C31.7674 124.953 32.1712 125.617 32.826 125.93C31.8968 119.049 30.8097 112.192 29.8986 105.309C29.8287 102.193 29.5258 99.0906 29.4534 95.9743C25.9383 100.031 22.6511 104.307 19.1567 108.386ZM147.342 102.322C144.829 104.009 142.227 105.526 139.732 107.243C132.409 111.998 125.035 116.668 117.741 121.476C119.413 122.678 121.039 123.953 122.685 125.195C122.928 125.389 123.215 125.569 123.34 125.89C123.811 125.96 124.178 126.324 124.561 126.608C130.887 131.456 137.281 136.207 143.576 141.103C146.351 127.289 148.916 113.422 151.657 99.603C150.171 100.419 148.791 101.436 147.342 102.322ZM152.11 101.137C151.985 101.866 151.864 102.595 151.721 103.322C149.231 116.085 146.84 128.871 144.293 141.621C149.772 145.418 155.172 149.348 160.628 153.182C161.487 153.771 162.28 154.477 163.219 154.916C159.72 137.756 156.269 120.584 152.79 103.417C152.609 102.669 152.477 101.908 152.42 101.14L152.11 101.137ZM37.5654 105.878C35.8364 108.853 34.0064 111.764 32.1764 114.666C34.3713 116.685 36.7242 118.498 38.9165 120.527C42.4212 116.62 45.8146 112.592 49.2805 108.642C45.3642 107.775 41.4868 106.714 37.5654 105.878ZM53.8179 105.799C56.9318 108.867 60.1673 111.789 63.32 114.813C66.8065 118.05 70.2077 121.397 73.7434 124.567C73.8884 123.59 74.3155 122.712 74.6442 121.8C76.6269 116.462 78.5578 111.103 80.5742 105.782C71.6546 105.838 62.7376 105.776 53.8179 105.799ZM53.3572 106.753C54.8611 113.369 56.1915 120.032 57.6514 126.659C58.943 132.869 60.3278 139.053 61.5987 145.266C62.5098 144.059 63.1543 142.651 63.9489 141.356C67.0835 136.027 70.1921 130.676 73.2982 125.324C67.1637 119.57 61.0422 113.797 54.9206 108.026C54.4081 107.598 53.9991 106.933 53.3572 106.753ZM50.9604 109.43C46.3168 117.943 41.7068 126.476 37.0581 134.983C34.8424 139.2 32.4456 143.31 30.3075 147.569C36.5093 145.106 42.706 142.629 48.9026 140.16C49.9405 129.341 51.0484 118.526 52.0501 107.705C51.522 108.141 51.2994 108.839 50.9604 109.43ZM52.7929 108.316C50.9138 127.793 49.0139 147.268 47.0933 166.742C47.6627 166.295 47.9966 165.608 48.4082 165.008C52.6143 158.762 56.8386 152.529 61.0473 146.28C58.4667 134.316 55.9301 122.34 53.3572 110.373C53.2071 109.675 53.1346 108.943 52.7929 108.316ZM46.5549 113.158C42.3902 117.749 38.3937 122.515 34.2859 127.165C33.5896 127.937 33.1082 128.885 32.5517 129.772C28.4646 136.314 24.4552 142.91 20.3629 149.447C19.8219 150.362 19.18 151.212 18.7762 152.217C22.1877 150.837 25.5992 149.458 29.0211 148.118C35.0572 136.97 41.1374 125.854 47.1321 114.68C48.1545 112.8 49.1459 110.889 50.3728 109.149L49.7127 109.287C48.7136 110.627 47.5954 111.854 46.5549 113.158ZM19.0635 110.258C19.0325 112.637 19.0972 115.013 19.0687 117.389C18.7296 128.683 18.432 139.977 18.0877 151.271C18.7374 150.823 19.0428 150.029 19.4596 149.362C23.9737 142.102 28.4542 134.817 32.9477 127.54C29.3006 123.48 25.6847 119.387 22.0609 115.303C21.2378 114.061 20.5622 112.707 19.8763 111.373C20.1481 111.066 19.9824 110.841 19.6175 110.807C19.4777 110.669 19.2007 110.396 19.0635 110.258ZM17.4924 121.805C12.81 132.59 8.10427 143.363 3.40633 154.142C7.8739 153.706 12.3363 153.199 16.8039 152.757C17.6322 152.825 17.2206 151.707 17.3216 151.172C17.6089 141.007 17.8677 130.839 18.2042 120.677C17.7642 120.862 17.6969 121.409 17.4924 121.805ZM117.503 122.371C118.714 132.708 119.884 143.048 121.119 153.382C134.77 154.044 148.426 154.736 162.078 155.429C161.563 154.671 160.714 154.351 160.035 153.807C153 148.703 145.784 143.893 138.888 138.561C131.747 133.187 124.67 127.703 117.503 122.371ZM116.721 124.21C116.323 126.273 115.784 128.303 115.329 130.352C112.559 142.164 109.867 153.999 107.072 165.805C113.162 178.723 119.304 191.611 125.403 204.529C125.742 205.177 125.925 205.956 126.492 206.427C125.025 194.212 123.643 181.986 122.216 169.766C122.136 167.75 121.701 165.785 121.543 163.781C119.964 150.595 118.442 137.401 116.939 124.207L116.721 124.21ZM70.6529 131.484C67.7849 136.43 64.8549 141.336 62.0283 146.313C66.2448 150.01 70.4329 153.754 74.6882 157.399C74.2275 147.22 73.9065 137.029 73.4458 126.85C72.4052 128.308 71.5925 129.947 70.6529 131.484ZM74.2456 126.881C74.6649 137.255 75.092 147.631 75.4647 158.01C84.5215 160.195 93.5912 162.323 102.653 164.49C103.557 164.693 104.452 165.008 105.387 164.983C95.4885 152.749 85.5957 140.512 75.6951 128.28C75.2499 127.773 74.9289 127.039 74.2456 126.881ZM18.7685 153.078C19.2732 153.562 19.9125 153.804 20.5053 154.128C27.4422 157.883 34.4516 161.484 41.3315 165.36C42.9907 166.16 44.5256 167.305 46.2831 167.846C46.4436 166.146 46.4824 164.431 46.6947 162.737C47.4143 155.527 48.0846 148.312 48.8223 141.106C38.8104 145.111 28.7959 149.12 18.7685 153.078ZM47.5903 167.674C56.4969 164.566 65.3803 161.366 74.274 158.202C70.0342 154.474 65.7945 150.753 61.5598 147.017C56.8774 153.883 52.2727 160.808 47.5903 167.674ZM18.3284 153.956C20.9582 161.979 23.4276 170.067 26.0703 178.084C27.8408 177.226 29.5724 176.269 31.3973 175.548C32.6733 175.016 33.8355 174.222 35.0883 173.642C37.5007 172.73 39.75 171.393 42.1055 170.329C43.2651 169.805 44.2926 168.944 45.5377 168.654C45.4134 168.181 44.9294 168.102 44.5981 167.88C42.7215 166.827 40.7983 165.875 38.9269 164.814C37.0348 164.04 35.2695 162.959 33.4499 162.01C28.3921 159.364 23.3913 156.586 18.3284 153.956ZM7.76778 167.032C13.5373 170.588 19.2732 174.214 25.079 177.702C22.5941 169.78 19.9902 161.903 17.5674 153.962C14.2439 158.263 11.0499 162.694 7.76778 167.032ZM121.22 154.204C122.341 164.935 123.733 175.621 124.937 186.349C125.755 193.595 126.655 200.83 127.432 208.082C128.152 207.285 128.672 206.311 129.324 205.453C140.061 189.82 150.784 174.174 161.511 158.534C162.018 157.782 162.616 157.09 162.953 156.225C158.392 156.211 153.844 155.806 149.291 155.645C139.936 155.125 130.574 154.753 121.22 154.204ZM146.382 182.051C140.433 190.73 134.452 199.375 128.553 208.09C143.754 200.509 158.896 192.788 174.096 185.198C170.713 175.717 167.13 166.315 163.726 156.842C157.884 165.194 152.18 173.662 146.382 182.051ZM165.041 157.847C165.215 158.742 165.582 159.57 165.893 160.417C168.893 168.617 171.916 176.806 174.919 185.004C182.987 185.606 191.044 186.428 199.112 187.042C197.72 185.463 195.924 184.359 194.5 182.805C192.406 180.947 190.242 179.182 188.166 177.305C185.808 175.455 183.523 173.504 181.258 171.528C176.296 167.277 171.365 162.99 166.4 158.745C165.984 158.385 165.572 157.985 165.041 157.847ZM48.1597 168.426C48.1338 168.544 48.0795 168.783 48.051 168.904C48.7913 169.082 49.5005 169.38 50.1916 169.715C56.2484 172.553 62.3804 175.199 68.4036 178.113C68.7504 177.437 68.9601 176.697 69.1723 175.965C70.9454 170.329 72.6951 164.685 74.4734 159.049C65.7039 162.179 56.9188 165.262 48.1597 168.426ZM75.3249 158.919C73.3785 165.29 71.3906 171.652 69.3664 177.994C80.3231 174.352 91.2565 170.61 102.203 166.934C103.088 166.565 104.069 166.467 104.879 165.906C95.0278 163.584 85.1945 161.149 75.3249 158.919ZM83.8356 174.045C78.9798 175.638 74.1705 177.392 69.2914 178.895C74.4423 192.495 79.6838 206.052 84.8735 219.632C90.5162 205.557 96.0761 191.442 101.677 177.344C103.054 173.758 104.579 170.233 105.876 166.616C98.5247 169.076 91.184 171.573 83.8356 174.045ZM97.9191 189.007C93.7983 199.386 89.675 209.765 85.5802 220.158C90.1487 218.886 94.7276 217.673 99.2987 216.412C108.392 213.985 117.454 211.406 126.562 209.064C126.347 208.282 125.964 207.578 125.605 206.869C119.315 193.564 113.025 180.269 106.73 166.973C103.676 174.259 100.888 181.676 97.9191 189.007ZM46.6973 168.983C46.2702 171.565 45.2089 173.943 44.6136 176.477C44.127 178.459 43.4074 180.367 43.0243 182.38C42.5222 184.387 41.8854 186.355 41.3729 188.362C49.2235 185.423 57.0923 182.549 64.9455 179.624C65.8152 179.278 66.7444 179.084 67.539 178.549C61.7074 175.99 55.9353 173.271 50.1295 170.641C48.9621 170.14 47.8983 169.389 46.6973 168.983ZM41.9501 171.151C40.7491 171.857 39.5093 172.485 38.2384 173.034C36.3644 173.715 34.7233 174.977 32.8286 175.613C30.7709 176.666 28.7364 177.775 26.645 178.757C31.2549 181.938 35.8726 185.102 40.4437 188.348C41.228 186.349 41.5515 184.176 42.3358 182.178C43.0709 180.058 43.3841 177.803 44.1192 175.686C44.8621 173.656 45.2866 171.517 45.8146 169.414C44.5308 170.005 43.1874 170.441 41.9501 171.151ZM68.7866 180.697C68.7763 181.161 68.7556 181.626 68.7245 182.093C64.8756 213.473 61.1069 244.866 57.2346 276.243L57.6099 276.057C66.5347 257.599 75.576 239.197 84.4464 220.705C79.3758 207.457 74.2456 194.232 69.2526 180.953C69.1361 180.888 68.9031 180.762 68.7866 180.697ZM138.104 204.293C138.324 216.803 138.544 229.316 138.733 241.832C138.805 246.173 138.966 250.513 138.93 254.854C153.761 239.678 168.497 224.381 183.292 209.16C180.336 201.424 177.37 193.691 174.422 185.953C162.331 192.098 150.189 198.131 138.104 204.293ZM175.276 185.834C181.817 203.215 188.531 220.519 195.129 237.874C197.003 242.623 198.683 247.456 200.611 252.177C200.968 252.991 200.945 254.038 201.706 254.59C201.178 232.39 200.707 210.188 200.194 187.985C191.886 187.321 183.579 186.597 175.276 185.834ZM201.002 188.272C201.24 200.743 201.587 213.211 201.81 225.679C213.17 218.785 224.528 211.877 235.86 204.926C224.261 199.327 212.611 193.849 201.002 188.272ZM127.994 209.346C127.634 209.503 127.339 209.779 127.155 210.154C119.53 223.21 111.793 236.188 104.206 249.266C107.074 249.779 109.96 250.187 112.797 250.879C115.225 251.293 117.666 251.606 120.081 252.098C122.361 252.445 124.587 253.134 126.891 253.323C130.667 253.968 134.434 254.691 138.207 255.344C137.902 238.456 137.599 221.566 137.343 204.673C134.219 206.213 131.113 207.798 127.994 209.346ZM234.796 208.684C224.836 223.759 214.863 238.817 204.923 253.903C204.372 254.75 203.725 255.538 203.321 256.49C215.005 252.957 226.64 249.227 238.319 245.674C237.76 232.536 237.035 219.401 236.53 206.263C235.798 206.928 235.368 207.874 234.796 208.684ZM237.278 206.291C237.858 219.331 238.534 232.37 239.088 245.413C244.187 244.081 249.273 242.69 254.364 241.322C256.627 240.652 258.943 240.193 261.174 239.411C253.176 228.398 245.295 217.284 237.278 206.291ZM231.258 208.757C221.468 214.737 211.664 220.688 201.872 226.658C201.872 230.684 202.11 234.704 202.097 238.73C202.149 242.192 202.4 245.655 202.283 249.114C202.467 251.386 202.431 253.669 202.488 255.947C205.482 251.769 208.115 247.29 211.146 243.141C212.541 240.68 214.198 238.411 215.733 236.055C221.699 226.985 227.688 217.932 233.675 208.876C234.092 208.231 234.623 207.637 234.791 206.849C233.484 207.144 232.441 208.135 231.258 208.757ZM85.5672 221.011C91.4222 230.239 97.4428 239.343 103.342 248.54C103.694 248.689 103.815 248.143 104.002 247.938C111.412 235.261 118.911 222.647 126.301 209.957C112.722 213.639 99.1563 217.388 85.5672 221.011ZM139.882 255.153C139.315 255.809 140.34 255.955 140.747 256.037C153.624 259.696 166.483 263.421 179.358 267.089C179.36 266.883 179.366 266.475 179.366 266.272C180.665 247.634 182.032 229.001 183.264 210.359C168.849 225.341 154.307 240.185 139.882 255.153ZM184.017 211.359C183.37 222.548 182.588 233.73 181.879 244.914C181.34 252.25 180.921 259.6 180.194 266.92C182.441 265.912 184.667 264.856 186.906 263.837C191.857 261.74 196.661 259.266 201.61 257.16C200.691 254.643 199.848 252.096 198.773 249.646C194.22 237.786 189.706 225.91 185.156 214.05C184.78 213.149 184.566 212.161 184.017 211.359ZM84.8839 221.636C75.8504 240.43 66.6667 259.142 57.6255 277.927C59.8204 276.885 61.7617 275.3 63.8946 274.112C76.8831 265.856 89.9028 257.65 102.917 249.444C99.4359 243.96 95.8742 238.541 92.354 233.085C89.8433 229.285 87.449 225.392 84.8839 221.636ZM202.457 257.703C197.779 259.798 193.11 261.92 188.451 264.043C185.969 265.315 183.362 266.298 180.906 267.623C181.845 267.863 182.772 268.175 183.657 268.603C184.529 268.679 185.352 269.017 186.183 269.301C209.849 277.062 233.523 284.787 257.196 292.528C250.994 277.175 244.707 261.861 238.549 246.491C226.516 250.215 214.482 253.953 202.457 257.703ZM103.779 250.035C99.4255 261.976 95.0925 273.929 90.744 285.874C90.5162 286.698 90.6948 287.574 90.7285 288.421C91.6034 311.567 92.6284 334.704 93.4722 357.852L93.8139 357.658C101.67 336.998 109.435 316.293 117.27 295.619C117.953 293.863 118.494 292.022 119.473 290.423C125.636 279.008 131.783 267.584 137.964 256.18C134.936 255.64 131.91 255.094 128.884 254.547C127.142 254.283 125.447 253.728 123.687 253.604C120.169 252.991 116.644 252.405 113.157 251.617C110.015 251.214 106.901 250.601 103.779 250.035ZM97.9682 253.576C84.3119 262.196 70.6658 270.827 57.012 279.444C68.6288 305.098 80.2248 330.757 91.8389 356.411C92.09 356.923 92.2272 357.548 92.6931 357.903C91.8001 333.964 90.7673 310.033 89.8458 286.099C94.0365 274.219 98.4937 262.435 102.684 250.553C101.139 251.608 99.5342 252.56 97.9682 253.576ZM139.227 256.476C142.766 267.953 146.439 279.379 149.956 290.862C155.521 286.544 160.97 282.045 166.493 277.662C170.549 274.346 174.709 271.176 178.718 267.792C165.551 264.034 152.387 260.262 139.227 256.476ZM137.213 259.291C131.289 270.261 125.356 281.223 119.457 292.21C125.221 304.563 131.105 316.851 136.877 329.2C137.413 328.697 137.54 327.914 137.773 327.227C141.611 315.367 145.525 303.53 149.325 291.656C148.129 287.323 146.648 283.078 145.362 278.774C143.102 271.491 140.744 264.248 138.549 256.943C137.977 257.633 137.677 258.52 137.213 259.291ZM152.682 289.812C152.366 290.015 152.159 290.313 152.066 290.707C165.132 288.286 178.175 285.733 191.241 283.318C189.282 280.719 187.278 278.16 185.288 275.59C183.383 273.155 181.682 270.54 179.64 268.237C170.622 275.379 161.687 282.645 152.682 289.812ZM181.061 268.533C181.133 268.69 181.281 269 181.356 269.158C191.246 281.899 201.067 294.71 210.975 307.434C218.826 303.929 226.637 300.306 234.473 296.751C238.976 294.761 243.41 292.571 247.953 290.682C247.855 290.136 247.254 290.212 246.881 290.046C228.069 283.903 209.262 277.738 190.446 271.596C187.99 270.72 185.459 270.092 183.051 269.065C182.36 269.017 181.718 268.727 181.061 268.533ZM150.427 291.915C153.803 299.521 157.307 307.063 160.729 314.646C165.342 324.727 169.897 334.845 174.536 344.911C180.215 324.665 185.798 304.383 191.44 284.123C177.771 286.724 164.099 289.322 150.427 291.915ZM149.827 292.756C145.952 304.766 142.012 316.749 138.117 328.747C137.884 329.58 137.418 330.411 137.589 331.312C138.927 341.688 140.25 352.064 141.575 362.441C142.465 362.103 143.291 361.605 144.148 361.188C154.129 356.135 164.073 350.997 174.075 345.995C168.525 333.606 162.841 321.287 157.24 308.923C154.745 303.547 152.384 298.097 149.827 292.756Z" fill="url(#paint0_linear)" />
            <defs>
                <linearGradient id="paint0_linear" x1="131.203" y1="0" x2="131.203" y2="363.674" gradientUnits="userSpaceOnUse">
                    <stop stop-color="#3A3A3A" />
                    <stop offset="0.763542" stop-color="#282828" stop-opacity="0.2" />
                    <stop offset="1" stop-color="white" stop-opacity="0" />
                </linearGradient>
            </defs>
        </svg>