 <svg width="10" height="10" viewBox="0 0 10 10" fill="none" xmlns="http://www.w3.org/2000/svg">
                                                <path d="M9.79159 4.79167C9.90826 4.79167 9.99992 4.88334 9.99992 5.00001C9.99992 5.11667 9.90826 5.20834 9.79159 5.20834H9.58325V4.79167H9.79159Z" fill="#979DC6" />
                                                <path d="M5.20825 4.79167H9.58326V5.20834H5.20825V4.79167Z" fill="#979DC6" />
                                                <path d="M8.95833 10H5C5.11667 10 5.20833 9.90833 5.20833 9.79167V9.58333H8.95833C9.30417 9.58333 9.58333 9.30417 9.58333 8.95833V5.20833H9.79167C9.90833 5.20833 10 5.11667 10 5V8.95833C10 9.53333 9.53333 10 8.95833 10Z" fill="#979DC6" />
                                                <path d="M10 1.04167V5C10 4.88333 9.90833 4.79167 9.79167 4.79167H9.58333V1.04167C9.58333 0.695833 9.30417 0.416667 8.95833 0.416667H5.20833V0.208333C5.20833 0.0916667 5.11667 0 5 0H8.95833C9.53333 0 10 0.466667 10 1.04167Z" fill="#979DC6" />
                                                <path d="M8.33325 2.5C8.44992 2.5 8.54158 2.59167 8.54158 2.70833C8.54158 2.825 8.44992 2.91667 8.33325 2.91667H6.66659C6.54992 2.91667 6.45825 2.825 6.45825 2.70833C6.45825 2.59167 6.54992 2.5 6.66659 2.5H8.33325Z" fill="#979DC6" />
                                                <path d="M8.33325 6.66667C8.44992 6.66667 8.54158 6.75834 8.54158 6.875C8.54158 6.99167 8.44992 7.08334 8.33325 7.08334H6.66659C6.54992 7.08334 6.45825 6.99167 6.45825 6.875C6.45825 6.75834 6.54992 6.66667 6.66659 6.66667H8.33325Z" fill="#979DC6" />
                                                <path d="M8.33325 7.91667C8.44992 7.91667 8.54158 8.00834 8.54158 8.125C8.54158 8.24167 8.44992 8.33334 8.33325 8.33334H6.66659C6.54992 8.33334 6.45825 8.24167 6.45825 8.125C6.45825 8.00834 6.54992 7.91667 6.66659 7.91667H8.33325Z" fill="#979DC6" />
                                                <path d="M5.20841 9.58334V9.79168C5.20841 9.90835 5.11675 10 5.00008 10C4.88341 10 4.79175 9.90835 4.79175 9.79168V9.58334H5.20841Z" fill="#979DC6" />
                                                <path d="M4.79175 5.20833H5.20841V9.58333H4.79175V5.20833Z" fill="#979DC6" />
                                                <path d="M4.79175 4.79167H5.20841V5.20834H4.79175V4.79167Z" fill="#979DC6" />
                                                <path d="M4.79175 0.416656H5.20841V4.79166H4.79175V0.416656Z" fill="#979DC6" />
                                                <path d="M5.20841 0.208333V0.416667H4.79175V0.208333C4.79175 0.0916667 4.88341 0 5.00008 0C5.11675 0 5.20841 0.0916667 5.20841 0.208333Z" fill="#979DC6" />
                                                <path d="M0.416748 4.79167H4.79175V5.20834H0.416748V4.79167Z" fill="#979DC6" />
                                                <path d="M3.33325 2.5C3.44992 2.5 3.54159 2.59167 3.54159 2.70833C3.54159 2.825 3.44992 2.91667 3.33325 2.91667H2.70825V2.5H3.33325Z" fill="#979DC6" />
                                                <path d="M3.27083 7.97917C3.35417 8.05833 3.35417 8.19167 3.27083 8.27083C3.23333 8.3125 3.17917 8.33333 3.125 8.33333C3.07083 8.33333 3.01667 8.3125 2.97917 8.27083L2.5 7.79167L2.79167 7.5L3.27083 7.97917Z" fill="#979DC6" />
                                                <path d="M2.97917 6.72917C3.05833 6.64584 3.19167 6.64584 3.27083 6.72917C3.35417 6.80834 3.35417 6.94167 3.27083 7.02084L2.79167 7.5L2.5 7.20834L2.97917 6.72917Z" fill="#979DC6" />
                                                <path d="M2.20703 7.49957L2.49871 7.20789L2.79039 7.49957L2.49871 7.79126L2.20703 7.49957Z" fill="#979DC6" />
                                                <path d="M2.70842 2.91667V3.54167C2.70842 3.65834 2.61675 3.75 2.50008 3.75C2.38341 3.75 2.29175 3.65834 2.29175 3.54167V2.91667H2.70842Z" fill="#979DC6" />
                                                <path d="M2.29175 2.5H2.70842V2.91667H2.29175V2.5Z" fill="#979DC6" />
                                                <path d="M2.70842 1.87499V2.49999H2.29175V1.87499C2.29175 1.75832 2.38341 1.66666 2.50008 1.66666C2.61675 1.66666 2.70842 1.75832 2.70842 1.87499Z" fill="#979DC6" />
                                                <path d="M2.50008 7.20834L2.20842 7.5L1.72925 7.02084C1.64591 6.94167 1.64591 6.80834 1.72925 6.72917C1.80841 6.64584 1.94175 6.64584 2.02091 6.72917L2.50008 7.20834Z" fill="#979DC6" />
                                                <path d="M2.29158 2.5V2.91667H1.66659C1.54992 2.91667 1.45825 2.825 1.45825 2.70833C1.45825 2.59167 1.54992 2.5 1.66659 2.5H2.29158Z" fill="#979DC6" />
                                                <path d="M2.02091 8.27083C1.98341 8.3125 1.92925 8.33333 1.87508 8.33333C1.82091 8.33333 1.76675 8.3125 1.72925 8.27083C1.64591 8.19167 1.64591 8.05833 1.72925 7.97917L2.20842 7.5L2.50008 7.79167L2.02091 8.27083Z" fill="#979DC6" />
                                                <path d="M0.416667 4.79167V5.20834H0.208333C0.0916667 5.20834 0 5.11667 0 5.00001C0 4.88334 0.0916667 4.79167 0.208333 4.79167H0.416667Z" fill="#979DC6" />
                                                <path d="M0 1.04167C0 0.466667 0.466667 0 1.04167 0H5C4.88333 0 4.79167 0.0916667 4.79167 0.208333V0.416667H1.04167C0.695833 0.416667 0.416667 0.695833 0.416667 1.04167V4.79167H0.208333C0.0916667 4.79167 0 4.88333 0 5V1.04167Z" fill="#979DC6" />
                                                <path d="M0.416667 8.95833C0.416667 9.30417 0.695833 9.58333 1.04167 9.58333H4.79167V9.79167C4.79167 9.90833 4.88333 10 5 10H1.04167C0.466667 10 0 9.53333 0 8.95833V5C0 5.11667 0.0916667 5.20833 0.208333 5.20833H0.416667V8.95833Z" fill="#979DC6" />
                                            </svg>
