<svg width="17" height="26" viewBox="0 0 17 26" fill="none" xmlns="http://www.w3.org/2000/svg">
                                    <path d="M2.48114 1.0044C3.12609 0.97596 3.76576 1.09108 4.40148 1.18454C5.36692 1.32133 6.335 1.4351 7.30045 1.57189C7.83856 1.62607 8.21577 2.05812 8.62464 2.37233C9.59668 3.13621 10.5555 3.91498 11.5381 4.66396C11.8415 4.8942 12.1092 5.16779 12.3413 5.47117C12.8623 6.13617 13.6998 6.40434 14.2788 6.99892C14.5848 7.3795 14.7892 7.83051 15.0359 8.25037C15.3643 8.86797 15.8074 9.42733 16 10.1127C15.1348 10.0449 14.3144 9.73207 13.465 9.58038C13.5798 10.1181 13.7763 10.6436 13.8053 11.1962C13.7262 11.6323 13.4848 12.0129 13.3068 12.411C12.4086 14.3248 11.4669 16.2155 10.5621 18.1252C10.4527 18.4069 10.1994 18.5708 9.94487 18.6968C8.68531 19.3414 7.45476 20.0403 6.20707 20.708C6.28093 21.266 6.54207 21.8105 6.49327 22.3766C6.15563 23.3166 5.79161 24.2525 5.38802 25.1667H5.268C4.72329 23.7933 4.53469 22.3035 3.98206 20.9329C3.53627 20.9247 3.09048 20.9031 2.64468 20.9342C2.09206 20.9721 1.55922 21.2119 1 21.1401C1.39831 20.5726 1.94039 20.1405 2.402 19.6313C2.58006 19.4606 2.73833 19.2507 2.96914 19.1532C3.57848 19.0448 4.2076 19.1017 4.81562 18.9744C5.33527 18.4773 5.74281 17.8679 6.22421 17.3302C6.58296 16.9713 6.50514 16.4227 6.52625 15.9555C6.50646 14.8517 6.61989 13.7505 6.62648 12.6467C5.84964 13.2602 5.59773 14.2787 5.09259 15.0995C5.02269 15.1063 4.8842 15.1185 4.8143 15.1252C4.64284 14.509 4.50831 13.8819 4.36323 13.2589C4.19441 12.5316 3.8871 11.83 3.85281 11.0743C3.89633 10.3239 4.37642 9.67654 4.4173 8.92892C3.92403 8.0418 3.25534 7.27115 2.72118 6.41111C2.54445 6.15649 2.57083 5.83279 2.56159 5.53618C2.57346 4.02469 2.40728 2.5159 2.48114 1.0044ZM2.76998 1.21162C2.78317 1.59762 2.7502 1.98904 2.80955 2.37233C3.02717 2.95878 3.28963 3.52898 3.49143 4.1222C3.57188 4.37005 3.71432 4.61791 3.9636 4.71813C5.03192 5.24905 6.08309 5.81518 7.15141 6.3434C7.83329 6.22963 8.49406 5.94791 9.16012 5.74747C8.86864 5.28968 8.46109 4.91045 8.02453 4.60436C7.61435 4.5529 7.17383 4.63687 6.80322 4.40256C6.59483 4.11272 6.35347 3.84184 6.22421 3.50189C6.55658 3.49512 6.88895 3.49377 7.22131 3.50054C7.86099 4.20753 8.55869 4.85628 9.19968 5.56056C9.4938 4.82919 9.33685 4.02875 9.38301 3.26081C8.78027 2.8247 8.22105 2.32899 7.60644 1.91184C6.00264 1.62471 4.36587 1.52178 2.76998 1.21162ZM2.7924 2.87481C2.76866 3.86758 2.77921 4.86305 2.79108 5.85717C3.11817 5.51993 3.25138 5.04589 3.54418 4.67885C3.26853 4.08834 3.10103 3.44907 2.7924 2.87481ZM9.6613 3.4748C9.46874 4.19805 9.49908 4.94702 9.51358 5.68787C10.2614 5.47117 11.0594 5.48607 11.7927 5.2179C11.1068 4.60436 10.3458 4.08834 9.6613 3.4748ZM6.48404 3.63191C6.6278 3.84861 6.75969 4.07209 6.89158 4.29692C7.21999 4.29692 7.54445 4.35109 7.86494 4.42694C7.67502 4.10189 7.32683 3.92311 7.09206 3.63598C6.88895 3.63327 6.68715 3.63191 6.48404 3.63191ZM3.61145 4.81158C3.39119 5.27343 3.08784 5.68787 2.87549 6.15378C3.60222 6.33527 4.29201 6.64271 5.01477 6.83775C4.59272 6.13347 4.09417 5.47659 3.61145 4.81158ZM3.93326 4.94431C4.38565 5.61474 4.86573 6.26484 5.33527 6.92307C5.87998 6.82149 6.41282 6.64542 6.91796 6.41653C5.90768 5.9601 4.95938 5.36282 3.93326 4.94431ZM9.48852 5.80164C9.99367 6.67793 10.5067 7.55151 11.0633 8.39394C11.6766 9.07249 12.3387 9.70363 13.0193 10.3117C13.2342 10.477 13.3213 10.7912 13.6022 10.863C13.4875 10.5894 13.3569 10.3199 13.3055 10.0246C12.9032 8.55375 12.4745 7.09102 12.0987 5.61338C11.6529 6.44227 11.4445 7.39169 10.9433 8.18807C11.0884 7.23187 11.6212 6.3759 11.9338 5.4644C11.1095 5.51451 10.3155 5.81248 9.48852 5.80164ZM6.01055 6.93933C5.94856 6.98267 5.82195 7.0707 5.75864 7.11404C7.39673 7.36596 8.99657 7.85218 10.632 8.12171C10.2588 7.35106 9.75758 6.6522 9.33685 5.90864C8.22105 6.22692 7.12635 6.61834 6.01055 6.93933ZM12.5629 6.04949C12.5392 6.20796 12.435 6.37184 12.5022 6.53166C12.7713 7.41472 13.0272 8.30455 13.2382 9.20386C13.5798 9.09145 13.928 9.00206 14.2696 8.89235C13.6748 8.012 12.9678 7.18041 12.5497 6.19441C13.2567 6.86348 13.6049 7.85083 14.2696 8.56188C14.2023 8.10274 14.0783 7.65173 14.1192 7.18176C13.6167 6.78086 13.0958 6.40434 12.5629 6.04949ZM2.99024 6.34475C4.04537 7.98356 5.23899 9.53704 6.27961 11.1907C6.33105 11.2395 6.43392 11.3357 6.48536 11.3831C6.46953 10.8847 6.21366 10.4458 6.09892 9.96909C5.89581 9.12666 5.56476 8.32351 5.36956 7.47837C5.30757 7.32804 5.27855 7.12217 5.09654 7.07476C4.38961 6.84723 3.6919 6.58989 2.99024 6.34475ZM5.4909 7.17364C6.50251 8.7515 7.44157 10.3795 8.469 11.9465C9.20628 10.7546 9.96597 9.57767 10.7112 8.39123C8.98734 7.91719 7.21604 7.64496 5.4909 7.17364ZM14.3685 7.59891C14.3896 8.0269 14.3909 8.45624 14.3896 8.88423C14.7642 9.11583 15.1216 9.37451 15.4856 9.62508C15.2179 8.89912 14.7312 8.27881 14.3685 7.59891ZM5.665 7.89146C6.06067 9.27429 6.52625 10.6395 6.90214 12.0291C7.38222 12.0278 7.86099 12.0291 8.33975 12.0291C7.80427 11.1758 7.2622 10.3253 6.71485 9.4788C6.36666 8.94924 6.10419 8.3506 5.665 7.89146ZM10.8681 8.48197C10.144 9.663 9.34872 10.798 8.65761 12.002C9.11527 11.9072 9.56898 11.7853 10.0346 11.7542C11.2018 11.612 12.3334 11.2002 13.5165 11.1975C13.3556 10.7939 12.981 10.5488 12.7067 10.2345C12.0973 9.64675 11.5566 8.97632 10.8681 8.48197ZM13.5798 9.24585C14.1074 9.5262 14.7207 9.55058 15.2838 9.72936C15.0055 9.47067 14.6784 9.27564 14.3922 9.02644C14.1271 9.12124 13.8554 9.19303 13.5798 9.24585ZM4.76286 9.26075C4.75758 9.99347 4.76022 10.7248 4.7589 11.4562C5.38407 11.6147 5.98813 11.8964 6.63967 11.9181C6.01319 11.0323 5.3867 10.1479 4.76286 9.26075ZM4.08889 10.9388C4.15748 11.1745 4.40411 11.3181 4.6191 11.398C4.62965 10.7722 4.64284 10.1452 4.61646 9.51943C4.3685 9.95825 4.22606 10.4526 4.08889 10.9388ZM4.08626 11.1853C4.33685 12.0223 4.44368 12.9068 4.74439 13.7235C4.8077 13.0354 4.75363 12.3447 4.598 11.6729C4.45687 11.4806 4.2709 11.3302 4.08626 11.1853ZM6.49195 11.3695C6.57373 11.4535 6.57373 11.4535 6.49195 11.3695ZM11.6199 11.6269C10.5964 11.7609 9.59404 12.0332 8.5732 12.1794C9.19309 13.1086 9.70219 14.1149 10.3274 15.0413C10.7059 14.4034 11.3363 13.9876 11.736 13.3672C12.3281 12.686 12.8808 11.9763 13.5125 11.3316C12.8689 11.3262 12.2609 11.5944 11.6199 11.6269ZM4.98839 11.7379C5.24954 12.2214 5.52651 12.6982 5.85096 13.1384C6.15299 12.8553 6.44975 12.556 6.6278 12.1713C6.11079 11.9235 5.52915 11.9086 4.98839 11.7379ZM4.89475 11.9736C4.90662 12.5045 4.83144 13.0503 4.97784 13.5677C5.06093 13.9293 5.00422 14.3031 5.0306 14.6688C5.31153 14.2381 5.45529 13.7235 5.77974 13.3212C5.48167 12.8742 5.18227 12.4273 4.89475 11.9736ZM12.3519 12.9108C12.0683 13.332 11.6423 13.6259 11.3614 14.0499C11.1055 14.4331 10.76 14.7392 10.4342 15.0575C10.4223 15.9677 10.4223 16.8778 10.4381 17.788C10.8444 17.0728 11.1767 16.3157 11.5025 15.56C12.0551 14.3505 12.6684 13.1709 13.2197 11.9614C12.9032 12.2485 12.5919 12.5506 12.3519 12.9108ZM7.03007 12.1754C6.99314 12.2133 6.91796 12.2905 6.88103 12.3284C6.84147 13.1803 6.90082 14.035 6.85729 14.8869C6.76497 15.3975 6.69111 15.9148 6.75046 16.4349C7.30045 15.021 7.85571 13.6056 8.34898 12.1686C7.90979 12.1673 7.46927 12.1442 7.03007 12.1754ZM8.48351 12.3745C7.86099 13.8264 7.39145 15.3406 6.83091 16.8169C7.97309 16.3157 9.06647 15.6995 10.1783 15.1279C9.5637 14.2422 9.12055 13.2426 8.48351 12.3745ZM7.03798 16.9591C7.01952 17.0011 6.97995 17.0837 6.96149 17.1257C8.04695 17.4074 9.07966 17.8665 10.1612 18.1618C10.173 17.2327 10.1757 16.3022 10.1585 15.3731C9.10472 15.8715 8.07597 16.4255 7.03798 16.9591ZM5.97758 18.0169C5.64653 18.3365 5.37352 18.7076 5.1216 19.0963C5.35241 19.0354 5.57795 18.9514 5.81667 18.9351C7.14218 18.7658 8.4479 18.4489 9.78264 18.3568C9.73252 18.3094 9.63492 18.216 9.58612 18.1699C8.63387 17.8462 7.68161 17.5266 6.73331 17.1893C6.38248 17.3044 6.23608 17.7582 5.97758 18.0169ZM4.96861 19.2575C5.40649 19.5988 5.65049 20.1243 6.05803 20.4994C6.64363 20.2299 7.1646 19.8399 7.74888 19.569C8.39515 19.2155 9.07966 18.9324 9.69823 18.5302C8.11949 18.7144 6.54867 19.0448 4.96861 19.2575ZM3.4756 19.3821C3.46241 19.5812 3.94513 19.5663 3.9359 19.3767C3.78159 19.2913 3.62728 19.2927 3.4756 19.3821ZM3.8106 19.6638C3.84094 19.9658 3.99789 20.2259 4.14429 20.4818C4.33289 20.1013 4.5215 19.722 4.689 19.332C4.40411 19.4606 4.11527 19.5879 3.8106 19.6638ZM4.24057 20.7202C4.76813 20.5848 5.30493 20.5279 5.84832 20.5618C5.54234 20.1405 5.11633 19.7694 4.96861 19.2575C4.68504 19.722 4.45819 20.2204 4.24057 20.7202ZM2.83593 19.4972C2.39541 19.936 1.95226 20.3735 1.54867 20.8489C1.82168 20.838 2.08151 20.7514 2.33474 20.6525C2.70799 20.3044 3.15115 20.039 3.47428 19.6354C3.26853 19.5798 3.05487 19.4065 2.83593 19.4972ZM2.59984 20.6931C3.06937 20.7013 3.54023 20.7013 4.00976 20.6877C3.89633 20.3897 3.75389 20.1053 3.59958 19.829C3.26985 20.1216 2.88077 20.3437 2.59984 20.6931ZM4.31179 20.8326C4.68636 21.0832 4.97389 21.4435 5.34846 21.6913C5.49222 21.3405 5.67423 21.0101 5.84305 20.6728C5.34318 20.8204 4.8288 20.8584 4.31179 20.8326ZM5.89317 20.9247C5.7626 21.2268 5.61751 21.522 5.41045 21.7766C5.67687 21.8999 5.95648 21.9933 6.23477 22.0814C6.13453 21.694 6.14508 21.2498 5.89317 20.9247ZM4.33685 21.0534C4.598 21.9121 4.86046 22.7735 5.04247 23.6552C5.07808 23.838 5.18623 23.9951 5.27592 24.1536C5.30229 23.4249 5.28383 22.6936 5.28383 21.9635C4.96333 21.6642 4.67977 21.3256 4.33685 21.0534ZM5.42627 22.0218C5.42232 22.8209 5.40649 23.6213 5.42891 24.4218C5.73622 23.7419 5.9723 23.0322 6.24136 22.3374C5.98549 22.1911 5.72303 22.0489 5.42627 22.0218Z" fill="white" />
                                    <path d="M4.96861 19.2575C5.40649 19.5988 5.65049 20.1243 6.05803 20.4994C6.64363 20.2299 7.1646 19.8399 7.74888 19.569C8.39515 19.2155 9.07966 18.9324 9.69823 18.5302C8.11949 18.7144 6.54867 19.0448 4.96861 19.2575ZM4.96861 19.2575C5.11633 19.7694 5.54234 20.1405 5.84832 20.5618C5.30493 20.5279 4.76813 20.5848 4.24057 20.7202C4.45819 20.2204 4.68504 19.722 4.96861 19.2575ZM2.48114 1.0044C3.12609 0.97596 3.76576 1.09108 4.40148 1.18454C5.36692 1.32133 6.335 1.4351 7.30045 1.57189C7.83856 1.62607 8.21577 2.05812 8.62464 2.37233C9.59668 3.13621 10.5555 3.91498 11.5381 4.66396C11.8415 4.8942 12.1092 5.16779 12.3413 5.47117C12.8623 6.13617 13.6998 6.40434 14.2788 6.99892C14.5848 7.3795 14.7892 7.83051 15.0359 8.25037C15.3643 8.86797 15.8074 9.42733 16 10.1127C15.1348 10.0449 14.3144 9.73207 13.465 9.58038C13.5798 10.1181 13.7763 10.6436 13.8053 11.1962C13.7262 11.6323 13.4848 12.0129 13.3068 12.411C12.4086 14.3248 11.4669 16.2155 10.5621 18.1252C10.4527 18.4069 10.1994 18.5708 9.94487 18.6968C8.68531 19.3414 7.45476 20.0403 6.20707 20.708C6.28093 21.266 6.54207 21.8105 6.49327 22.3766C6.15563 23.3166 5.79161 24.2525 5.38802 25.1667H5.268C4.72329 23.7933 4.53469 22.3035 3.98206 20.9329C3.53627 20.9247 3.09048 20.9031 2.64468 20.9342C2.09206 20.9721 1.55922 21.2119 1 21.1401C1.39831 20.5726 1.94039 20.1405 2.402 19.6313C2.58006 19.4606 2.73833 19.2507 2.96914 19.1532C3.57848 19.0448 4.2076 19.1017 4.81562 18.9744C5.33527 18.4773 5.74281 17.8679 6.22421 17.3302C6.58296 16.9713 6.50514 16.4227 6.52625 15.9555C6.50646 14.8517 6.61989 13.7505 6.62648 12.6467C5.84964 13.2602 5.59773 14.2787 5.09259 15.0995C5.02269 15.1063 4.8842 15.1185 4.8143 15.1252C4.64284 14.509 4.50831 13.8819 4.36323 13.2589C4.19441 12.5316 3.8871 11.83 3.85281 11.0743C3.89633 10.3239 4.37642 9.67654 4.4173 8.92892C3.92403 8.0418 3.25534 7.27115 2.72118 6.41111C2.54445 6.15649 2.57083 5.83279 2.56159 5.53618C2.57346 4.02469 2.40728 2.5159 2.48114 1.0044ZM2.76998 1.21162C2.78317 1.59762 2.7502 1.98904 2.80955 2.37233C3.02717 2.95878 3.28963 3.52898 3.49143 4.1222C3.57188 4.37005 3.71432 4.61791 3.9636 4.71813C5.03192 5.24905 6.08309 5.81518 7.15141 6.3434C7.83329 6.22963 8.49406 5.94791 9.16012 5.74747C8.86864 5.28968 8.46109 4.91045 8.02453 4.60436C7.61435 4.5529 7.17383 4.63687 6.80322 4.40256C6.59483 4.11272 6.35347 3.84184 6.22421 3.50189C6.55658 3.49512 6.88895 3.49377 7.22131 3.50054C7.86099 4.20753 8.55869 4.85628 9.19968 5.56056C9.4938 4.82919 9.33685 4.02875 9.38301 3.26081C8.78027 2.8247 8.22105 2.32899 7.60644 1.91184C6.00264 1.62471 4.36587 1.52178 2.76998 1.21162ZM2.7924 2.87481C2.76866 3.86758 2.77921 4.86305 2.79108 5.85717C3.11817 5.51993 3.25138 5.04589 3.54418 4.67885C3.26853 4.08834 3.10103 3.44907 2.7924 2.87481ZM9.6613 3.4748C9.46874 4.19805 9.49908 4.94702 9.51358 5.68787C10.2614 5.47117 11.0594 5.48607 11.7927 5.2179C11.1068 4.60436 10.3458 4.08834 9.6613 3.4748ZM6.48404 3.63191C6.6278 3.84861 6.75969 4.07209 6.89158 4.29692C7.21999 4.29692 7.54445 4.35109 7.86494 4.42694C7.67502 4.10189 7.32683 3.92311 7.09206 3.63598C6.88895 3.63327 6.68715 3.63191 6.48404 3.63191ZM3.61145 4.81158C3.39119 5.27343 3.08784 5.68787 2.87549 6.15378C3.60222 6.33527 4.29201 6.64271 5.01477 6.83775C4.59272 6.13347 4.09417 5.47659 3.61145 4.81158ZM3.93326 4.94431C4.38565 5.61474 4.86573 6.26484 5.33527 6.92307C5.87998 6.82149 6.41282 6.64542 6.91796 6.41653C5.90768 5.9601 4.95938 5.36282 3.93326 4.94431ZM9.48852 5.80164C9.99367 6.67793 10.5067 7.55151 11.0633 8.39394C11.6766 9.07249 12.3387 9.70363 13.0193 10.3117C13.2342 10.477 13.3213 10.7912 13.6022 10.863C13.4875 10.5894 13.3569 10.3199 13.3055 10.0246C12.9032 8.55375 12.4745 7.09102 12.0987 5.61338C11.6529 6.44227 11.4445 7.39169 10.9433 8.18807C11.0884 7.23187 11.6212 6.3759 11.9338 5.4644C11.1095 5.51451 10.3155 5.81248 9.48852 5.80164ZM6.01055 6.93933C5.94856 6.98267 5.82195 7.0707 5.75864 7.11404C7.39673 7.36596 8.99657 7.85218 10.632 8.12171C10.2588 7.35106 9.75758 6.6522 9.33685 5.90864C8.22105 6.22692 7.12635 6.61834 6.01055 6.93933ZM12.5629 6.04949C12.5392 6.20796 12.435 6.37184 12.5022 6.53166C12.7713 7.41472 13.0272 8.30455 13.2382 9.20386C13.5798 9.09145 13.928 9.00206 14.2696 8.89235C13.6748 8.012 12.9678 7.18041 12.5497 6.19441C13.2567 6.86348 13.6049 7.85083 14.2696 8.56188C14.2023 8.10274 14.0783 7.65173 14.1192 7.18176C13.6167 6.78086 13.0958 6.40434 12.5629 6.04949ZM2.99024 6.34475C4.04537 7.98356 5.23899 9.53704 6.27961 11.1907C6.33105 11.2395 6.43392 11.3357 6.48536 11.3831C6.46953 10.8847 6.21366 10.4458 6.09892 9.96909C5.89581 9.12666 5.56476 8.32351 5.36956 7.47837C5.30757 7.32804 5.27855 7.12217 5.09654 7.07476C4.38961 6.84723 3.6919 6.58989 2.99024 6.34475ZM5.4909 7.17364C6.50251 8.7515 7.44157 10.3795 8.469 11.9465C9.20628 10.7546 9.96597 9.57767 10.7112 8.39123C8.98734 7.91719 7.21604 7.64496 5.4909 7.17364ZM14.3685 7.59891C14.3896 8.0269 14.3909 8.45624 14.3896 8.88423C14.7642 9.11583 15.1216 9.37451 15.4856 9.62508C15.2179 8.89912 14.7312 8.27881 14.3685 7.59891ZM5.665 7.89146C6.06067 9.27429 6.52625 10.6395 6.90214 12.0291C7.38222 12.0278 7.86099 12.0291 8.33975 12.0291C7.80427 11.1758 7.2622 10.3253 6.71485 9.4788C6.36666 8.94924 6.10419 8.3506 5.665 7.89146ZM10.8681 8.48197C10.144 9.663 9.34872 10.798 8.65761 12.002C9.11527 11.9072 9.56898 11.7853 10.0346 11.7542C11.2018 11.612 12.3334 11.2002 13.5165 11.1975C13.3556 10.7939 12.981 10.5488 12.7067 10.2345C12.0973 9.64675 11.5566 8.97632 10.8681 8.48197ZM13.5798 9.24585C14.1074 9.5262 14.7207 9.55058 15.2838 9.72936C15.0055 9.47067 14.6784 9.27564 14.3922 9.02644C14.1271 9.12124 13.8554 9.19303 13.5798 9.24585ZM4.76286 9.26075C4.75758 9.99347 4.76022 10.7248 4.7589 11.4562C5.38407 11.6147 5.98813 11.8964 6.63967 11.9181C6.01319 11.0323 5.3867 10.1479 4.76286 9.26075ZM4.08889 10.9388C4.15748 11.1745 4.40411 11.3181 4.6191 11.398C4.62965 10.7722 4.64284 10.1452 4.61646 9.51943C4.3685 9.95825 4.22606 10.4526 4.08889 10.9388ZM4.08626 11.1853C4.33685 12.0223 4.44368 12.9068 4.74439 13.7235C4.8077 13.0354 4.75363 12.3447 4.598 11.6729C4.45687 11.4806 4.2709 11.3302 4.08626 11.1853ZM6.49195 11.3695C6.57373 11.4535 6.57373 11.4535 6.49195 11.3695ZM11.6199 11.6269C10.5964 11.7609 9.59404 12.0332 8.5732 12.1794C9.19309 13.1086 9.70219 14.1149 10.3274 15.0413C10.7059 14.4034 11.3363 13.9876 11.736 13.3672C12.3281 12.686 12.8808 11.9763 13.5125 11.3316C12.8689 11.3262 12.2609 11.5944 11.6199 11.6269ZM4.98839 11.7379C5.24954 12.2214 5.52651 12.6982 5.85096 13.1384C6.15299 12.8553 6.44975 12.556 6.6278 12.1713C6.11079 11.9235 5.52915 11.9086 4.98839 11.7379ZM4.89475 11.9736C4.90662 12.5045 4.83144 13.0503 4.97784 13.5677C5.06093 13.9293 5.00422 14.3031 5.0306 14.6688C5.31153 14.2381 5.45529 13.7235 5.77974 13.3212C5.48167 12.8742 5.18227 12.4273 4.89475 11.9736ZM12.3519 12.9108C12.0683 13.332 11.6423 13.6259 11.3614 14.0499C11.1055 14.4331 10.76 14.7392 10.4342 15.0575C10.4223 15.9677 10.4223 16.8778 10.4381 17.788C10.8444 17.0728 11.1767 16.3157 11.5025 15.56C12.0551 14.3505 12.6684 13.1709 13.2197 11.9614C12.9032 12.2485 12.5919 12.5506 12.3519 12.9108ZM7.03007 12.1754C6.99314 12.2133 6.91796 12.2905 6.88103 12.3284C6.84147 13.1803 6.90082 14.035 6.85729 14.8869C6.76497 15.3975 6.69111 15.9148 6.75046 16.4349C7.30045 15.021 7.85571 13.6056 8.34898 12.1686C7.90979 12.1673 7.46927 12.1442 7.03007 12.1754ZM8.48351 12.3745C7.86099 13.8264 7.39145 15.3406 6.83091 16.8169C7.97309 16.3157 9.06647 15.6995 10.1783 15.1279C9.5637 14.2422 9.12055 13.2426 8.48351 12.3745ZM7.03798 16.9591C7.01952 17.0011 6.97995 17.0837 6.96149 17.1257C8.04695 17.4074 9.07966 17.8665 10.1612 18.1618C10.173 17.2327 10.1757 16.3022 10.1585 15.3731C9.10472 15.8715 8.07597 16.4255 7.03798 16.9591ZM5.97758 18.0169C5.64653 18.3365 5.37352 18.7076 5.1216 19.0963C5.35241 19.0354 5.57795 18.9514 5.81667 18.9351C7.14218 18.7658 8.4479 18.4489 9.78264 18.3568C9.73252 18.3094 9.63492 18.216 9.58612 18.1699C8.63387 17.8462 7.68161 17.5266 6.73331 17.1893C6.38248 17.3044 6.23608 17.7582 5.97758 18.0169ZM3.4756 19.3821C3.46241 19.5812 3.94513 19.5663 3.9359 19.3767C3.78159 19.2913 3.62728 19.2927 3.4756 19.3821ZM3.8106 19.6638C3.84094 19.9658 3.99789 20.2259 4.14429 20.4818C4.33289 20.1013 4.5215 19.722 4.689 19.332C4.40411 19.4606 4.11527 19.5879 3.8106 19.6638ZM2.83593 19.4972C2.39541 19.936 1.95226 20.3735 1.54867 20.8489C1.82168 20.838 2.08151 20.7514 2.33474 20.6525C2.70799 20.3044 3.15115 20.039 3.47428 19.6354C3.26853 19.5798 3.05487 19.4065 2.83593 19.4972ZM2.59984 20.6931C3.06937 20.7013 3.54023 20.7013 4.00976 20.6877C3.89633 20.3897 3.75389 20.1053 3.59958 19.829C3.26985 20.1216 2.88077 20.3437 2.59984 20.6931ZM4.31179 20.8326C4.68636 21.0832 4.97389 21.4435 5.34846 21.6913C5.49222 21.3405 5.67423 21.0101 5.84305 20.6728C5.34318 20.8204 4.8288 20.8584 4.31179 20.8326ZM5.89317 20.9247C5.7626 21.2268 5.61751 21.522 5.41045 21.7766C5.67687 21.8999 5.95648 21.9933 6.23477 22.0814C6.13453 21.694 6.14508 21.2498 5.89317 20.9247ZM4.33685 21.0534C4.598 21.9121 4.86046 22.7735 5.04247 23.6552C5.07808 23.838 5.18623 23.9951 5.27592 24.1536C5.30229 23.4249 5.28383 22.6936 5.28383 21.9635C4.96333 21.6642 4.67977 21.3256 4.33685 21.0534ZM5.42627 22.0218C5.42232 22.8209 5.40649 23.6213 5.42891 24.4218C5.73622 23.7419 5.9723 23.0322 6.24136 22.3374C5.98549 22.1911 5.72303 22.0489 5.42627 22.0218Z" stroke="white" stroke-width="0.25" />
                                </svg>