<svg width="66" height="24" viewBox="0 0 66 24" fill="none" xmlns="http://www.w3.org/2000/svg">
                        <path d="M5.65999 4.20002L6.04999 4.59002C6.43999 4.97002 6.43999 5.61002 6.04999 5.99002L6.03999 6.00002C5.64999 6.39002 5.02999 6.39002 4.63999 6.00002L4.24999 5.61002C3.85999 5.23002 3.85999 4.60002 4.24999 4.21002L4.25999 4.20002C4.63999 3.82002 5.26999 3.81002 5.65999 4.20002Z" fill="black" />
                        <path d="M1.99 10.95H3.01C3.56 10.95 4 11.39 4 11.95V11.96C4 12.51 3.56 12.95 3 12.94H1.99C1.44 12.94 1 12.5 1 11.95V11.94C1 11.39 1.44 10.95 1.99 10.95Z" fill="black" />
                        <path d="M12 1H12.01C12.56 1 13 1.44 13 1.99V2.96C13 3.51 12.56 3.95 12 3.94H11.99C11.44 3.94 11 3.5 11 2.95V1.99C11 1.44 11.44 1 12 1Z" fill="black" />
                        <path d="M18.34 4.20002C18.73 3.82002 19.36 3.82002 19.75 4.21002C20.14 4.60002 20.14 5.22002 19.75 5.61002L19.36 6.00002C18.98 6.39002 18.35 6.39002 17.96 6.00002L17.95 5.99002C17.56 5.61002 17.56 4.98002 17.95 4.59002L18.34 4.20002Z" fill="black" />
                        <path d="M18.33 19.7L17.94 19.31C17.55 18.92 17.55 18.3 17.95 17.9C18.33 17.52 18.96 17.51 19.35 17.9L19.74 18.29C20.13 18.68 20.13 19.31 19.74 19.7C19.35 20.09 18.72 20.09 18.33 19.7Z" fill="black" />
                        <path d="M20 11.95V11.94C20 11.39 20.44 10.95 20.99 10.95H22C22.55 10.95 22.99 11.39 22.99 11.94V11.95C22.99 12.5 22.55 12.94 22 12.94H20.99C20.44 12.94 20 12.5 20 11.95Z" fill="black" />
                        <path fill-rule="evenodd" clip-rule="evenodd" d="M6 11.95C6 8.64001 8.69 5.95001 12 5.95001C15.31 5.95001 18 8.64001 18 11.95C18 15.26 15.31 17.95 12 17.95C8.69 17.95 6 15.26 6 11.95ZM12 16C14.2091 16 16 14.2091 16 12C16 9.79087 14.2091 8.00001 12 8.00001C9.79086 8.00001 8 9.79087 8 12C8 14.2091 9.79086 16 12 16Z" fill="black" />
                        <path d="M12 22.9H11.99C11.44 22.9 11 22.46 11 21.91V20.95C11 20.4 11.44 19.96 11.99 19.96H12C12.55 19.96 12.99 20.4 12.99 20.95V21.91C12.99 22.46 12.55 22.9 12 22.9Z" fill="black" />
                        <path d="M5.66 19.69C5.27 20.08 4.64 20.08 4.25 19.69C3.86 19.3 3.86 18.68 4.24 18.28L4.63 17.89C5.02 17.5 5.65 17.5 6.04 17.89L6.05 17.9C6.43 18.28 6.44 18.91 6.05 19.3L5.66 19.69Z" fill="black" />
                        <path fill-rule="evenodd" clip-rule="evenodd" d="M49.1534 13.5796L49.1536 13.5807C49.7732 16.782 52.4221 19.3384 55.647 19.856L55.6502 19.8565C58.0412 20.2443 60.2625 19.581 61.9422 18.254C56.3549 16.2585 52.9748 10.3231 54.2627 4.45887C50.6985 5.74265 48.3582 9.48316 49.1534 13.5796ZM55.0083 2.18125C49.7662 3.22401 46.0989 8.34018 47.1901 13.9608C47.9701 17.9908 51.2801 21.1808 55.3301 21.8308C58.8512 22.4018 62.0955 21.1315 64.2662 18.8294C64.2765 18.8185 64.2866 18.8077 64.2968 18.7968C64.4385 18.6452 64.5757 18.4891 64.7079 18.3288C64.7105 18.3257 64.713 18.3226 64.7156 18.3194C64.8853 18.1133 65.0469 17.9002 65.2001 17.6808C65.4101 17.3708 65.2401 16.9308 64.8701 16.8908C64.5114 16.8503 64.1602 16.7916 63.817 16.7159C63.7964 16.7113 63.7758 16.7067 63.7552 16.702C63.6676 16.6821 63.5804 16.661 63.4938 16.6388C63.4919 16.6383 63.4901 16.6379 63.4882 16.6374C58.0234 15.2354 54.7252 9.45077 56.4542 4.00488C56.4549 4.00285 56.4555 4.00083 56.4562 3.99881C56.4875 3.90025 56.5205 3.8018 56.5552 3.70349C56.5565 3.69982 56.5578 3.69614 56.5591 3.69246C56.6768 3.35992 56.8136 3.029 56.9701 2.70076C57.1301 2.36076 56.8501 1.98076 56.4701 2.00076C56.1954 2.0145 55.924 2.03919 55.6561 2.07439C55.6517 2.07498 55.6472 2.07557 55.6428 2.07616C55.4413 2.10292 55.2418 2.13563 55.0446 2.17411C55.0325 2.17647 55.0204 2.17885 55.0083 2.18125Z" fill="black" />
                        <line x1="34.5" y1="3" x2="34.5" y2="21" stroke="black" />
                    </svg>