<svg width="38" height="38" viewBox="0 0 38 38" fill="none" xmlns="http://www.w3.org/2000/svg">
                                        <path class="logo-eye" d="M27.8221 27.3918L32.0438 21.3884L24.4703 25.3907L22.9184 28.6427L27.8221 27.3918Z" fill="#030303" />
                                        <path class="logo-eye" d="M9.44779 27.3918L5.2264 21.3884L12.7998 25.3907L14.3518 28.6427L9.44779 27.3918Z" fill="#030303" />
                                        <path d="M18.6353 34.8964L21.3665 32.1451H15.9035L18.6353 34.8964Z" fill="#030303" />
                                        <path d="M18.6353 21.7635L12.7999 25.3906L18.6353 21.7635ZM18.6353 21.7635L15.9035 32.1451L18.6353 21.7635ZM18.6353 21.7635L24.4704 25.3906L18.6353 21.7635ZM18.6353 21.7635L21.3665 32.1451L18.6353 21.7635ZM18.6353 21.7635L24.2219 9.13011L18.6353 21.7635ZM18.6353 21.7635L13.0482 9.13011L18.6353 21.7635ZM13.0482 9.13011H18.6353H24.2219H13.0482ZM13.0482 9.13011L9.82021 12.0074L13.0482 9.13011ZM13.0482 9.13011L0.384583 1L13.0482 9.13011ZM12.7999 25.3906L14.3519 28.6427L12.7999 25.3906ZM12.7999 25.3906L5.2265 21.3884L12.7999 25.3906ZM12.7999 25.3906L9.82021 12.0074L12.7999 25.3906ZM15.9035 32.1451L14.3519 28.6427L15.9035 32.1451ZM15.9035 32.1451H11.1863H15.9035ZM15.9035 32.1451L13.4205 35.7722L15.9035 32.1451ZM15.9035 32.1451L18.6353 34.8964L15.9035 32.1451ZM15.9035 32.1451H21.3665H15.9035ZM9.82021 12.0074H1.87475H9.82021ZM9.82021 12.0074L0.384583 1L9.82021 12.0074ZM5.2265 21.3884L9.4479 27.3917L5.2265 21.3884ZM5.2265 21.3884L2.12236 19.7621L5.2265 21.3884ZM5.2265 21.3884L1.87475 12.0074L5.2265 21.3884ZM9.4479 27.3917L14.3519 28.6427L9.4479 27.3917ZM9.4479 27.3917L11.1863 32.1451L9.4479 27.3917ZM9.4479 27.3917L5.97143 27.6421L9.4479 27.3917ZM11.1863 32.1451L13.4205 35.7722L11.1863 32.1451ZM11.1863 32.1451L5.97143 27.6421L11.1863 32.1451ZM13.4205 35.7722L17.1451 37.0231L13.4205 35.7722ZM13.4205 35.7722L5.97143 27.6421L13.4205 35.7722ZM18.6353 34.8964L21.3665 32.1451L18.6353 34.8964ZM18.6353 34.8964L17.1451 37.0231L18.6353 34.8964ZM18.6353 34.8964L20.1249 37.0231L18.6353 34.8964ZM17.1451 37.0231H20.1249H17.1451ZM5.97143 27.6421L2.12236 19.7621L5.97143 27.6421ZM2.12236 19.7621L1.87475 12.0074L2.12236 19.7621ZM1.87475 12.0074L0.384583 1L1.87475 12.0074ZM24.2219 9.13011L27.4501 12.0074L24.2219 9.13011ZM24.2219 9.13011L36.8854 1L24.2219 9.13011ZM24.4704 25.3906L22.9185 28.6427L24.4704 25.3906ZM24.4704 25.3906L32.0438 21.3884L24.4704 25.3906ZM24.4704 25.3906L27.4501 12.0074L24.4704 25.3906ZM21.3665 32.1451L22.9185 28.6427L21.3665 32.1451ZM21.3665 32.1451H26.0843H21.3665ZM21.3665 32.1451L23.8498 35.7722L21.3665 32.1451ZM27.4501 12.0074H35.3959H27.4501ZM27.4501 12.0074L36.8854 1L27.4501 12.0074ZM32.0438 21.3884L27.8221 27.3917L32.0438 21.3884ZM32.0438 21.3884L35.1477 19.7621L32.0438 21.3884ZM32.0438 21.3884L35.3959 12.0074L32.0438 21.3884ZM27.8221 27.3917L22.9185 28.6427L27.8221 27.3917ZM27.8221 27.3917L26.0843 32.1451L27.8221 27.3917ZM27.8221 27.3917L31.2989 27.6421L27.8221 27.3917ZM26.0843 32.1451L23.8498 35.7722L26.0843 32.1451ZM26.0843 32.1451L31.2989 27.6421L26.0843 32.1451ZM23.8498 35.7722L20.1249 37.0231L23.8498 35.7722ZM23.8498 35.7722L31.2989 27.6421L23.8498 35.7722ZM31.2989 27.6421L35.1477 19.7621L31.2989 27.6421ZM35.1477 19.7621L35.3959 12.0074L35.1477 19.7621ZM35.3959 12.0074L36.8854 1L35.3959 12.0074Z" fill="#030303" />
                                        <path d="M35.3959 12.0074L36.8854 1M18.6353 21.7635L12.7999 25.3906L18.6353 21.7635ZM18.6353 21.7635L15.9035 32.1451L18.6353 21.7635ZM18.6353 21.7635L24.4704 25.3906L18.6353 21.7635ZM18.6353 21.7635L21.3665 32.1451L18.6353 21.7635ZM18.6353 21.7635L24.2219 9.13011L18.6353 21.7635ZM18.6353 21.7635L13.0482 9.13011L18.6353 21.7635ZM13.0482 9.13011H18.6353H24.2219H13.0482ZM13.0482 9.13011L9.82021 12.0074L13.0482 9.13011ZM13.0482 9.13011L0.384583 1L13.0482 9.13011ZM12.7999 25.3906L14.3519 28.6427L12.7999 25.3906ZM12.7999 25.3906L5.2265 21.3884L12.7999 25.3906ZM12.7999 25.3906L9.82021 12.0074L12.7999 25.3906ZM15.9035 32.1451L14.3519 28.6427L15.9035 32.1451ZM15.9035 32.1451H11.1863H15.9035ZM15.9035 32.1451L13.4205 35.7722L15.9035 32.1451ZM15.9035 32.1451L18.6353 34.8964L15.9035 32.1451ZM15.9035 32.1451H21.3665H15.9035ZM9.82021 12.0074H1.87475H9.82021ZM9.82021 12.0074L0.384583 1L9.82021 12.0074ZM5.2265 21.3884L9.44789 27.3917L5.2265 21.3884ZM5.2265 21.3884L2.12236 19.7621L5.2265 21.3884ZM5.2265 21.3884L1.87475 12.0074L5.2265 21.3884ZM9.44789 27.3917L14.3519 28.6427L9.44789 27.3917ZM9.44789 27.3917L11.1863 32.1451L9.44789 27.3917ZM9.44789 27.3917L5.97143 27.6421L9.44789 27.3917ZM11.1863 32.1451L13.4205 35.7722L11.1863 32.1451ZM11.1863 32.1451L5.97143 27.6421L11.1863 32.1451ZM13.4205 35.7722L17.1451 37.0231L13.4205 35.7722ZM13.4205 35.7722L5.97143 27.6421L13.4205 35.7722ZM18.6353 34.8964L21.3665 32.1451L18.6353 34.8964ZM18.6353 34.8964L17.1451 37.0231L18.6353 34.8964ZM18.6353 34.8964L20.1249 37.0231L18.6353 34.8964ZM17.1451 37.0231H20.1249H17.1451ZM5.97143 27.6421L2.12236 19.7621L5.97143 27.6421ZM2.12236 19.7621L1.87475 12.0074L2.12236 19.7621ZM1.87475 12.0074L0.384583 1L1.87475 12.0074ZM24.2219 9.13011L27.4501 12.0074L24.2219 9.13011ZM24.2219 9.13011L36.8854 1L24.2219 9.13011ZM24.4704 25.3906L22.9185 28.6427L24.4704 25.3906ZM24.4704 25.3906L32.0438 21.3884L24.4704 25.3906ZM24.4704 25.3906L27.4501 12.0074L24.4704 25.3906ZM21.3665 32.1451L22.9185 28.6427L21.3665 32.1451ZM21.3665 32.1451H26.0843H21.3665ZM21.3665 32.1451L23.8498 35.7722L21.3665 32.1451ZM27.4501 12.0074H35.3959H27.4501ZM27.4501 12.0074L36.8854 1L27.4501 12.0074ZM32.0438 21.3884L27.8221 27.3917L32.0438 21.3884ZM32.0438 21.3884L35.1477 19.7621L32.0438 21.3884ZM32.0438 21.3884L35.3959 12.0074L32.0438 21.3884ZM27.8221 27.3917L22.9185 28.6427L27.8221 27.3917ZM27.8221 27.3917L26.0843 32.1451L27.8221 27.3917ZM27.8221 27.3917L31.2989 27.6421L27.8221 27.3917ZM26.0843 32.1451L23.8498 35.7722L26.0843 32.1451ZM26.0843 32.1451L31.2989 27.6421L26.0843 32.1451ZM23.8498 35.7722L20.1249 37.0231L23.8498 35.7722ZM23.8498 35.7722L31.2989 27.6421L23.8498 35.7722ZM31.2989 27.6421L35.1477 19.7621L31.2989 27.6421ZM35.1477 19.7621L35.3959 12.0074L35.1477 19.7621Z" stroke="#030303" stroke-width="0.5" />
                                    </svg>