<svg width="97" height="96" viewBox="0 0 97 96" fill="none" xmlns="http://www.w3.org/2000/svg">
                                            <path class="logo-eye" d="M72.6139 69.8845L83.6328 54.2153L63.8656 64.6615L59.8149 73.1495L72.6139 69.8845Z" fill="#030303" />
                                            <path class="logo-eye" d="M24.6557 69.8845L13.6375 54.2153L33.4048 64.6615L37.4554 73.1495L24.6557 69.8845Z" fill="#030303" />
                                            <path class="logo-nose" d="M48.6358 89.4721L55.7645 82.291H41.5056L48.6358 89.4721Z" fill="#030303" />
                                            <path d="M48.6358 55.1943L33.405 64.6614L48.6358 55.1943ZM48.6358 55.1943L41.5055 82.291L48.6358 55.1943ZM48.6358 55.1943L63.8657 64.6614L48.6358 55.1943ZM48.6358 55.1943L55.7645 82.291L48.6358 55.1943ZM48.6358 55.1943L63.2171 22.2202L48.6358 55.1943ZM48.6358 55.1943L34.0529 22.2202L48.6358 55.1943ZM34.0529 22.2202H48.6358H63.2171H34.0529ZM34.0529 22.2202L25.6277 29.73L34.0529 22.2202ZM34.0529 22.2202L1 1L34.0529 22.2202ZM33.405 64.6614L37.4557 73.1495L33.405 64.6614ZM33.405 64.6614L13.6378 54.2153L33.405 64.6614ZM33.405 64.6614L25.6277 29.73L33.405 64.6614ZM41.5055 82.291L37.4557 73.1495L41.5055 82.291ZM41.5055 82.291H29.1932H41.5055ZM41.5055 82.291L35.0247 91.7581L41.5055 82.291ZM41.5055 82.291L48.6358 89.4722L41.5055 82.291ZM41.5055 82.291H55.7645H41.5055ZM25.6277 29.73H4.88946H25.6277ZM25.6277 29.73L1 1L25.6277 29.73ZM13.6378 54.2153L24.6559 69.8845L13.6378 54.2153ZM13.6378 54.2153L5.53573 49.9704L13.6378 54.2153ZM13.6378 54.2153L4.88946 29.73L13.6378 54.2153ZM24.6559 69.8845L37.4557 73.1495L24.6559 69.8845ZM24.6559 69.8845L29.1932 82.291L24.6559 69.8845ZM24.6559 69.8845L15.5821 70.5379L24.6559 69.8845ZM29.1932 82.291L35.0247 91.7581L29.1932 82.291ZM29.1932 82.291L15.5821 70.5379L29.1932 82.291ZM35.0247 91.7581L44.7463 95.0232L35.0247 91.7581ZM35.0247 91.7581L15.5821 70.5379L35.0247 91.7581ZM48.6358 89.4722L55.7645 82.291L48.6358 89.4722ZM48.6358 89.4722L44.7463 95.0232L48.6358 89.4722ZM48.6358 89.4722L52.5237 95.0232L48.6358 89.4722ZM44.7463 95.0232H52.5237H44.7463ZM15.5821 70.5379L5.53573 49.9704L15.5821 70.5379ZM5.53573 49.9704L4.88946 29.73L5.53573 49.9704ZM4.88946 29.73L1 1L4.88946 29.73ZM63.2171 22.2202L71.6431 29.73L63.2171 22.2202ZM63.2171 22.2202L96.27 1L63.2171 22.2202ZM63.8657 64.6614L59.8151 73.1495L63.8657 64.6614ZM63.8657 64.6614L83.633 54.2153L63.8657 64.6614ZM63.8657 64.6614L71.6431 29.73L63.8657 64.6614ZM55.7645 82.291L59.8151 73.1495L55.7645 82.291ZM55.7645 82.291H68.0783H55.7645ZM55.7645 82.291L62.2461 91.7581L55.7645 82.291ZM71.6431 29.73H92.3821H71.6431ZM71.6431 29.73L96.27 1L71.6431 29.73ZM83.633 54.2153L72.6141 69.8845L83.633 54.2153ZM83.633 54.2153L91.7343 49.9704L83.633 54.2153ZM83.633 54.2153L92.3821 29.73L83.633 54.2153ZM72.6141 69.8845L59.8151 73.1495L72.6141 69.8845ZM72.6141 69.8845L68.0783 82.291L72.6141 69.8845ZM72.6141 69.8845L81.6887 70.5379L72.6141 69.8845ZM68.0783 82.291L62.2461 91.7581L68.0783 82.291ZM68.0783 82.291L81.6887 70.5379L68.0783 82.291ZM62.2461 91.7581L52.5237 95.0232L62.2461 91.7581ZM62.2461 91.7581L81.6887 70.5379L62.2461 91.7581ZM81.6887 70.5379L91.7343 49.9704L81.6887 70.5379ZM91.7343 49.9704L92.3821 29.73L91.7343 49.9704ZM92.3821 29.73L96.27 1Z" fill="#030303" />
                                            <path d="M92.3821 29.73L96.27 1M48.6358 55.1943L33.405 64.6614L48.6358 55.1943ZM48.6358 55.1943L41.5055 82.291L48.6358 55.1943ZM48.6358 55.1943L63.8657 64.6614L48.6358 55.1943ZM48.6358 55.1943L55.7645 82.291L48.6358 55.1943ZM48.6358 55.1943L63.2171 22.2202L48.6358 55.1943ZM48.6358 55.1943L34.0529 22.2202L48.6358 55.1943ZM34.0529 22.2202H48.6358H63.2171H34.0529ZM34.0529 22.2202L25.6277 29.73L34.0529 22.2202ZM34.0529 22.2202L1 1L34.0529 22.2202ZM33.405 64.6614L37.4557 73.1495L33.405 64.6614ZM33.405 64.6614L13.6378 54.2153L33.405 64.6614ZM33.405 64.6614L25.6277 29.73L33.405 64.6614ZM41.5055 82.291L37.4557 73.1495L41.5055 82.291ZM41.5055 82.291H29.1932H41.5055ZM41.5055 82.291L35.0247 91.7581L41.5055 82.291ZM41.5055 82.291L48.6358 89.4722L41.5055 82.291ZM41.5055 82.291H55.7645H41.5055ZM25.6277 29.73H4.88946H25.6277ZM25.6277 29.73L1 1L25.6277 29.73ZM13.6378 54.2153L24.6559 69.8845L13.6378 54.2153ZM13.6378 54.2153L5.53573 49.9704L13.6378 54.2153ZM13.6378 54.2153L4.88946 29.73L13.6378 54.2153ZM24.6559 69.8845L37.4557 73.1495L24.6559 69.8845ZM24.6559 69.8845L29.1932 82.291L24.6559 69.8845ZM24.6559 69.8845L15.5821 70.5379L24.6559 69.8845ZM29.1932 82.291L35.0247 91.7581L29.1932 82.291ZM29.1932 82.291L15.5821 70.5379L29.1932 82.291ZM35.0247 91.7581L44.7463 95.0232L35.0247 91.7581ZM35.0247 91.7581L15.5821 70.5379L35.0247 91.7581ZM48.6358 89.4722L55.7645 82.291L48.6358 89.4722ZM48.6358 89.4722L44.7463 95.0232L48.6358 89.4722ZM48.6358 89.4722L52.5237 95.0232L48.6358 89.4722ZM44.7463 95.0232H52.5237H44.7463ZM15.5821 70.5379L5.53573 49.9704L15.5821 70.5379ZM5.53573 49.9704L4.88946 29.73L5.53573 49.9704ZM4.88946 29.73L1 1L4.88946 29.73ZM63.2171 22.2202L71.6431 29.73L63.2171 22.2202ZM63.2171 22.2202L96.27 1L63.2171 22.2202ZM63.8657 64.6614L59.8151 73.1495L63.8657 64.6614ZM63.8657 64.6614L83.633 54.2153L63.8657 64.6614ZM63.8657 64.6614L71.6431 29.73L63.8657 64.6614ZM55.7645 82.291L59.8151 73.1495L55.7645 82.291ZM55.7645 82.291H68.0783H55.7645ZM55.7645 82.291L62.2461 91.7581L55.7645 82.291ZM71.6431 29.73H92.3821H71.6431ZM71.6431 29.73L96.27 1L71.6431 29.73ZM83.633 54.2153L72.6141 69.8845L83.633 54.2153ZM83.633 54.2153L91.7343 49.9704L83.633 54.2153ZM83.633 54.2153L92.3821 29.73L83.633 54.2153ZM72.6141 69.8845L59.8151 73.1495L72.6141 69.8845ZM72.6141 69.8845L68.0783 82.291L72.6141 69.8845ZM72.6141 69.8845L81.6887 70.5379L72.6141 69.8845ZM68.0783 82.291L62.2461 91.7581L68.0783 82.291ZM68.0783 82.291L81.6887 70.5379L68.0783 82.291ZM62.2461 91.7581L52.5237 95.0232L62.2461 91.7581ZM62.2461 91.7581L81.6887 70.5379L62.2461 91.7581ZM81.6887 70.5379L91.7343 49.9704L81.6887 70.5379ZM91.7343 49.9704L92.3821 29.73L91.7343 49.9704Z" stroke="#030303" />
                                        </svg>