<svg class="mt-3 brand-name" width="128" height="17" viewBox="0 0 128 17" fill="none" xmlns="http://www.w3.org/2000/svg">
                    <path d="M124.343 0H125.263C126.778 0.17902 127.573 1.96711 126.933 3.29818C126.287 5.01676 123.534 5.10522 122.758 3.45613C122.029 2.12507 122.804 0.244309 124.343 0Z" fill="#030303" />
                    <path d="M20.9064 2.25146C22.9823 1.79865 25.2714 2.36519 26.8268 3.84158C28.9528 5.84028 29.4963 9.09002 28.7793 11.8448C28.2859 13.6708 27.0839 15.3346 25.3906 16.196C23.298 17.2512 20.6305 17.1564 18.6779 15.8296C14.7081 13.1548 14.5534 6.51635 18.2264 3.52145C19.002 2.88962 19.9281 2.44733 20.9064 2.25146ZM21.7468 6.04458C20.6033 6.35417 19.8904 7.50201 19.7232 8.62878C19.4974 10.0062 19.7671 11.6279 20.8918 12.5504C21.8388 13.3444 23.3628 13.1632 24.1363 12.2071C25.1711 10.9729 25.2421 9.12793 24.6735 7.66839C24.2387 6.52266 22.9656 5.68864 21.7468 6.04458Z" fill="#030303" />
                    <path d="M62.8609 4.46288C64.8427 1.89974 68.7937 1.37742 71.4633 3.12128C72.1908 3.5762 72.7552 4.23752 73.2486 4.93465C72.3999 5.82343 71.5448 6.708 70.7212 7.61994C70.3512 7.14607 69.9623 6.67009 69.4418 6.35838C68.4843 5.75603 67.1171 5.84028 66.3081 6.66166C65.543 7.37353 65.2879 8.4645 65.2754 9.47964C65.2775 10.4527 65.5012 11.4847 66.1639 12.2281C66.9102 13.0811 68.2397 13.2917 69.2348 12.7778C69.8578 12.4809 70.301 11.9291 70.7107 11.3899C71.5365 12.3103 72.4145 13.1822 73.2444 14.1005C71.2333 17.346 66.2768 17.8472 63.5403 15.2736C60.6554 12.5546 60.4651 7.55676 62.8609 4.46288Z" fill="#030303" />
                    <path d="M93.2903 2.42415C96.9654 2.41783 100.643 2.42205 104.318 2.42415C104.318 3.65202 104.318 4.87988 104.318 6.10775C103.149 6.10775 101.983 6.10775 100.816 6.10775C100.814 9.59968 100.816 13.0937 100.816 16.5857C99.4761 16.5878 98.1382 16.5815 96.7981 16.5899C96.7835 13.0979 96.794 9.6039 96.794 6.11196C95.6254 6.10564 94.4568 6.10985 93.2903 6.10775C93.2882 4.87988 93.2903 3.65202 93.2903 2.42415Z" fill="#030303" />
                    <path d="M0.00136523 2.42203C1.98735 2.42835 3.97333 2.40729 5.95931 2.43045C7.54601 2.46205 9.20796 3.07071 10.1633 4.40388C11.8023 6.72903 11.5075 10.5095 9.07835 12.1797C7.61081 13.2243 5.73772 13.1337 4.02768 13.1106C4.0235 14.2689 4.02559 15.4273 4.02559 16.5856C2.68558 16.5856 1.34347 16.5835 0.00345574 16.5878C-0.00281579 11.8658 0.00136523 7.14394 0.00136523 2.42203ZM4.02559 6.11194C4.02559 7.21555 4.0235 8.31915 4.02559 9.42275C4.71337 9.41433 5.40951 9.48173 6.09101 9.35536C7.47911 8.99732 7.47493 6.59635 6.11819 6.19619C5.4325 6.04455 4.72173 6.11615 4.02559 6.11194Z" fill="#030303" />
                    <path d="M33.9721 2.42203C35.3142 2.42203 36.6542 2.41992 37.9963 2.42203C37.9963 5.91396 37.9963 9.4059 37.9963 12.8978C39.79 12.9021 41.5837 12.8999 43.3773 12.8999C43.3815 14.1278 43.3794 15.3578 43.3773 16.5856C40.2436 16.5856 37.1079 16.5835 33.9742 16.5856C33.97 11.8658 33.9721 7.14393 33.9721 2.42203Z" fill="#030303" />
                    <path d="M45.2609 2.42205C46.6804 2.41994 48.0977 2.42416 49.5172 2.41994C50.3137 4.01849 51.1143 5.61492 51.8962 7.22189C52.2892 6.83436 52.4773 6.30362 52.7219 5.81921C53.2822 4.68612 53.8445 3.55303 54.409 2.42205C55.7093 2.42205 57.0096 2.42416 58.3099 2.41994C57.0848 4.83355 55.9183 7.28086 54.6765 9.68815C54.3734 10.3832 53.8529 11.0171 53.7818 11.7922C53.7693 13.3907 53.786 14.9871 53.7797 16.5857C52.4397 16.5857 51.0976 16.5836 49.7576 16.5878C49.7513 14.9892 49.7555 13.3907 49.7597 11.7943C49.7722 11.472 49.6677 11.1645 49.5214 10.8844C48.1019 8.06433 46.6845 5.24214 45.2609 2.42205Z" fill="#030303" />
                    <path d="M76.3447 16.5835C78.0944 11.8658 79.8233 7.13973 81.573 2.42203C82.8859 2.41992 84.1987 2.42835 85.5115 2.4136C87.2613 7.13551 89.0048 11.8595 90.7399 16.5856C89.3518 16.5835 87.9637 16.5899 86.5756 16.5835C86.3227 15.7537 86.0467 14.9345 85.7749 14.1131C84.2635 14.1089 82.7521 14.1131 81.2427 14.111C80.971 14.9345 80.7159 15.7643 80.44 16.5878C79.0749 16.5835 77.7098 16.5878 76.3447 16.5835ZM82.3444 10.6864C83.12 10.6906 83.8977 10.6885 84.6774 10.6843C84.2928 9.55755 83.9332 8.42235 83.5757 7.28715C82.9778 8.33389 82.7813 9.56597 82.3444 10.6864Z" fill="#030303" />
                    <path d="M108.812 2.42203C112.036 2.42203 115.257 2.41992 118.481 2.42203C118.481 3.63304 118.481 4.84406 118.481 6.05507C116.599 6.05507 114.718 6.05297 112.837 6.05718C112.837 6.86171 112.837 7.66836 112.837 8.475C114.49 8.47921 116.146 8.4771 117.799 8.4771C117.802 9.66916 117.802 10.8633 117.802 12.0575C116.146 12.0596 114.492 12.0575 112.837 12.0575C112.834 13.5676 112.839 15.0756 112.834 16.5856C111.494 16.5856 110.154 16.5835 108.814 16.5856C108.81 11.8658 108.812 7.14393 108.812 2.42203Z" fill="#030303" />
                    <path d="M122.871 5.52858C124.161 5.52858 125.449 5.52858 126.738 5.52858C126.738 9.21428 126.738 12.9 126.738 16.5857C125.449 16.5857 124.161 16.5857 122.871 16.5857C122.871 12.9 122.871 9.21428 122.871 5.52858Z" fill="#030303" />
                </svg>